<svg xmlns="http://www.w3.org/2000/svg" data-name="Group 1997" width="206.11300659179688" height="171.23599243164062" style=""><rect id="backgroundrect" width="100%" height="100%" x="0" y="0" fill="none" stroke="none"/>
<g class="currentLayer" style=""><g id="XMLID_260_" class="selected" fill-opacity="1" fill="#04baac">
    <path id="XMLID_261_" d="M52.262000793457034,17.819000244140625 V29.771000244140623 H42.37500079345703 V17.819000244140625 a9.986,9.986 0 1 0 14.885,8.692 A9.736,9.736 0 0 0 52.262000793457034,17.819000244140625 z" fill="#04baac"/>
  </g><g id="XMLID_258_" class="selected" fill-opacity="1" fill="#04baac">
    <path id="XMLID_259_" d="M139.83799743652344,17.819000244140625 V29.771000244140623 h9.887 V17.819000244140625 A9.986,9.986 0 1 1 134.83799743652344,26.511000244140632 A9.736,9.736 0 0 1 139.83799743652344,17.819000244140625 z" fill="#04baac"/>
  </g><rect id="XMLID_83_" width="14.451000213623047" height="47.37300109863281" y="119.9520034790039" x="76.81700134277344" class="selected" fill-opacity="1" fill="#04baac"/><rect id="XMLID_82_" width="14.451000213623047" height="47.37300109863281" y="119.9520034790039" x="100.1780014038086" class="selected" fill-opacity="1" fill="#04baac"/><path id="XMLID_81_" d="M148.74500003814697,76.16499951171875 L146.57200003814697,32.48699951171875 h-4.237 L139.51000003814698,76.16499951171875 z" class="selected" fill-opacity="1" fill="#04baac"/><path id="XMLID_80_" d="M117.88799991607667,84.42300015258789 s15.211,2.064 21.622,-8.258 l10,2.825 A63.559,63.559 0 0 1 117.88799991607667,104.4150001525879 z" class="selected" fill-opacity="1" fill="#04baac"/><circle id="XMLID_79_" cx="144.07400512695312" cy="78.99099731445312" r="5.433000087738037" fill="#fff" class="selected" fill-opacity="1"/><path id="XMLID_76_" d="M144.0730001564026,85.94399948120117 a7.062,7.062 0 1 1 7.062,-7.062 A7.048,7.048 0 0 1 144.0730001564026,85.94399948120117 zm0,-10.757 a3.8,3.8 0 1 0 3.8,3.8 A3.779,3.779 0 0 0 144.0730001564026,75.18699948120117 z" class="selected" fill-opacity="1" fill="#04baac"/><circle id="XMLID_74_" cx="83.55299377441406" cy="143.96499633789062" r="6.519000053405762" fill="#fff" class="selected" fill-opacity="1"/><path id="XMLID_71_" d="M83.55399954223633,152.1159996032715 a8.149000000000001,8.149000000000001 0 1 1 0,-16.3 c4.455,0 6.519,3.694 6.519,8.149000000000001 S88.00499954223633,152.1159996032715 83.55399954223633,152.1159996032715 zm0,-13.147 a4.985,4.985 0 0 0 -5,5 a5,5 0 0 0 10,0 A4.985,4.985 0 0 0 83.55399954223633,138.9669996032715 z" class="selected" fill-opacity="1" fill="#04baac"/><circle id="XMLID_69_" cx="108" cy="143.96499633789062" r="6.519000053405762" fill="#fff" class="selected" fill-opacity="1"/><path id="XMLID_66_" d="M108.00100028991699,152.1159996032715 c-4.455,0 -7.28,-3.694 -7.28,-8.149000000000001 s2.716,-8.149000000000001 7.28,-8.149000000000001 a8.149000000000001,8.149000000000001 0 0 1 0,16.3 zm0,-13.147 a4.985,4.985 0 0 0 -5,5 a5,5 0 0 0 10,0 A4.985,4.985 0 0 0 108.00100028991699,138.9669996032715 z" class="selected" fill-opacity="1" fill="#04baac"/><path id="XMLID_64_" d="M42.80899982452392,76.16499951171875 L44.87299982452392,32.48699951171875 H49.10899982452392 l2.825,43.678 z" class="selected" fill-opacity="1" fill="#04baac"/><path id="XMLID_63_" d="M73.5579995803833,84.42300015258789 S58.3469995803833,86.4870001525879 51.9399995803833,76.1650001525879 L41.9399995803833,78.9900001525879 A63.559,63.559 0 0 0 73.5579995803833,104.4150001525879 V84.42300015258789 z" class="selected" fill-opacity="1" fill="#04baac"/><circle id="XMLID_62_" cx="47.37299728393555" cy="78.99099731445312" r="5.433000087738037" fill="#fff" class="selected" fill-opacity="1"/><path id="XMLID_59_" d="M47.3720004196167,85.94399948120117 a7.062,7.062 0 1 1 7.062,-7.062 A7.048,7.048 0 0 1 47.3720004196167,85.94399948120117 zm0,-10.757 a3.8,3.8 0 1 0 3.8,3.8 A3.85,3.85 0 0 0 47.3720004196167,75.18699948120117 z" class="selected" fill-opacity="1" fill="#04baac"/><path id="XMLID_57_" d="M74.53600025177002,81.70700022888184 l0.21700000000000003,-23.034 a21.516,21.516 0 0 1 43.026,0.6520000000000001 l-0.32600000000000007,25.425 l-7.388,-0.10900000000000001 l0.32600000000000007,-25.425 a14.486,14.486 0 0 0 -4.02,-10.1 a13.8,13.8 0 0 0 -10,-4.237 a14.486,14.486 0 0 0 -10.1,4.02 a13.8,13.8 0 0 0 -4.237,10 l-0.32600000000000007,23.034 z" class="selected" fill-opacity="1" fill="#04baac"/><circle id="XMLID_56_" cx="88.87799835205078" cy="64.21399688720703" r="3.1510000228881836" class="selected" fill-opacity="1" fill="#04baac"/><circle id="XMLID_55_" cx="103.65499877929688" cy="64.21399688720703" r="3.1510000228881836" class="selected" fill-opacity="1" fill="#04baac"/><circle id="XMLID_54_" cx="95.49910736083984" cy="100.17699432373047" r="28.68400001525879" class="selected" fill-opacity="1" fill="#04baac"/><path id="XMLID_53_" d="M93.5499995880127,95.50600012207032 l-1.087,20.535 h8.04 l-1.6300000000000001,-20.644 a5.849,5.849 0 0 0 3.26,-5.324 a5.976,5.976 0 1 0 -11.952,0 A6.181,6.181 0 0 0 93.5499995880127,95.50600012207032 z" fill="#fff" class="selected" opacity="1" filter="" stroke="none" stroke-width="1" fill-opacity="1"/><path id="XMLID_52_" d="M94.20200017547607,171.23700025939942 a13.405,13.405 0 0 0 -26.511,0 h26.511 z" class="selected" fill-opacity="1" fill="#04baac"/><path id="XMLID_51_" d="M124.0809998855591,171.23700025939942 a13.405,13.405 0 0 0 -26.511,0 h26.511 z" class="selected" fill-opacity="1" fill="#04baac"/><path id="XMLID_236_" d="M27.16300038146973,11.19099961853027 c-2.934,-4.346 -7.062,-6.845 -11.409,-6.845 c-4.455,0 -8.475,2.39 -11.517,6.736 A26.9,26.9 0 0 0 3.8146972514141453e-7,25.96799961853027 a26.9,26.9 0 0 0 4.237,14.885 C7.171000381469728,45.19999961853027 11.300000381469726,47.58999961853027 15.646000381469726,47.58999961853027 s8.475,-2.39 11.517,-6.736 a23.24,23.24 0 0 0 3.8,-9.887 a1.5,1.5 0 0 1 1.412,-1.2 l172.214,0.10900000000000001 a1.622,1.622 0 0 0 1.521,-1.412 V23.899999618530273 a1.622,1.622 0 0 0 -1.413,-1.521 h-5.215 a1.464,1.464 0 0 1 -1.412,-1.521 V1.520999618530272 a1.622,1.622 0 0 0 -1.412,-1.521 H174.93100038146972 a1.622,1.622 0 0 0 -1.521,1.412 v19.34 a1.464,1.464 0 0 1 -1.521,1.412 h-1.3 a1.464,1.464 0 0 1 -1.412,-1.521 V5.866999618530272 a1.622,1.622 0 0 0 -1.413,-1.521 h-3.368 a1.622,1.622 0 0 0 -1.521,1.412 V20.53499961853027 a1.464,1.464 0 0 1 -1.521,1.412 H32.48700038146973 a1.413,1.413 0 0 1 -1.412,-1.2 A26.542,26.542 0 0 0 27.16300038146973,11.19099961853027 zM15.646000381469726,41.50499961853028 c-5.215,0 -9.67,-7.171 -9.67,-15.537 s4.455,-15.537 9.779,-15.537 s9.67,7.171 9.67,15.537 S20.86100038146973,41.50499961853028 15.646000381469726,41.50499961853028 z" class="selected" fill-opacity="1" fill="#04baac"/><g id="XMLID_45_" class="selected" fill-opacity="1" fill="#04baac">
    <path id="XMLID_46_" d="M54.54400079345703,32.48700024414063 c-0.7610000000000002,-1.087 -1.521,-1.6300000000000003 -2.282,-2.716 H42.37500079345703 V17.819000244140625 A9.979,9.979 0 0 0 47.268000793457034,36.50700024414063 A10.259,10.259 0 0 0 54.86800079345703,33.03000024414062 C54.86800079345703,32.813000244140625 54.652000793457034,32.704000244140616 54.54400079345703,32.48700024414063 z" fill="#04baac"/>
  </g><g id="XMLID_21_" class="selected" fill-opacity="1" fill="#04baac">
    <path id="XMLID_22_" d="M137.66300256347654,32.48700024414063 c0.7610000000000002,-1.087 0.978,-1.6300000000000003 1.738,-2.716 H149.83700256347657 V17.819000244140625 a9.979,9.979 0 0 1 -4.889,18.688 a10.259,10.259 0 0 1 -7.606,-3.477 C137.33700256347657,32.813000244140625 137.44600256347655,32.704000244140616 137.66300256347654,32.48700024414063 z" fill="#04baac"/>
  </g></g></svg>