<svg version="1.0" xmlns="http://www.w3.org/2000/svg"
 width="42" height="42" viewBox="0 0 256.000000 256.000000"
 preserveAspectRatio="xMidYMid meet">

<g transform="translate(0.000000,256.000000) scale(0.100000,-0.100000)"
fill="#04BAAC" stroke="none">
<path d="M1111 2529 c-196 -25 -433 -121 -587 -237 -154 -116 -297 -287 -382
-457 -159 -320 -170 -721 -27 -1054 200 -469 648 -763 1160 -763 359 1 679
137 920 393 164 176 269 381 322 629 24 115 24 351 0 473 -52 261 -179 492
-373 677 -106 102 -196 163 -336 230 -213 101 -460 140 -697 109z m212 -380
c12 -6 71 -59 131 -118 l109 -106 11 27 c30 70 80 98 178 98 87 0 133 -20 160
-71 16 -29 18 -59 18 -224 l0 -190 77 -77 c43 -43 86 -78 95 -78 29 0 58 -37
58 -74 0 -40 -37 -76 -77 -76 -26 0 -73 40 -73 62 0 8 -34 47 -76 88 -111 109
-114 117 -114 343 l0 187 -70 0 -70 0 0 -130 c0 -71 -3 -130 -6 -130 -3 0 -94
84 -201 188 -107 103 -199 189 -204 190 -10 4 -755 -721 -770 -750 -7 -14 -2
-26 27 -57 19 -22 44 -43 55 -46 16 -5 79 52 315 282 163 158 306 293 317 300
28 15 92 16 120 2 12 -6 156 -144 320 -308 198 -197 301 -307 308 -328 17 -51
-3 -101 -63 -159 -29 -29 -63 -57 -75 -63 -24 -12 -88 -14 -115 -3 -10 4 -109
95 -220 203 -112 107 -209 199 -216 203 -16 10 -412 -368 -412 -393 0 -17 79
-101 95 -101 4 0 63 53 129 118 178 175 200 174 394 -21 169 -170 169 -193 -7
-372 -61 -61 -111 -117 -111 -123 0 -24 -40 -52 -74 -52 -40 0 -76 37 -76 77
0 28 41 73 68 73 18 0 222 199 222 217 0 15 -215 223 -231 223 -8 0 -62 -48
-119 -106 -58 -58 -117 -112 -132 -120 -15 -8 -48 -14 -73 -14 -43 0 -51 4
-107 58 -33 31 -67 70 -75 86 -19 37 -12 95 16 134 11 17 113 118 225 226
l205 196 49 0 c61 0 62 0 305 -235 103 -99 192 -182 198 -184 13 -4 99 78 99
94 0 16 -576 588 -588 584 -6 -2 -143 -133 -306 -292 -183 -179 -308 -293
-331 -303 -27 -11 -45 -12 -70 -5 -41 11 -128 82 -155 127 -23 37 -26 94 -6
132 15 30 782 785 806 795 26 10 90 7 113 -4z"/>
</g>
</svg>
