<svg width="512" height="512" xmlns="http://www.w3.org/2000/svg">

    <g>
        <title>background</title>
        <rect fill="none" id="canvas_background" height="402" width="582" y="-1" x="-1"/>
    </g>
    <g>
        <title>Layer 1</title>
        <path stroke="null" id="logo" fill="#04c0b2" d="m214.126009,2.627089c27.897673,-0.793387 55.950334,-0.793387 83.848007,0c72.068989,1.904129 144.137978,9.679323 212.177304,33.32226l-15.188733,22.690872c-57.500204,-20.628065 -125.694517,-30.624743 -197.763506,-32.846227c-27.277725,-0.793387 -55.020411,-0.793387 -82.298136,0c-72.068989,2.221484 -140.263301,12.218162 -197.763506,32.846227l-15.188733,-22.690872c67.884338,-23.642937 139.953327,-31.41813 212.177304,-33.32226zm119.495034,81.242842l-77.648524,425.890213l-77.648524,-425.890213c-41.381549,0 -84.622942,6.505774 -85.707852,37.765227c-19.528371,-5.077678 -55.020411,-27.609872 -63.234726,-43.477615c59.205062,-24.595001 157.001905,-27.76855 199.468364,-26.023098l27.122738,35.543744l27.122738,-35.702421c42.466458,-1.586774 140.108314,1.586774 199.468364,26.023098c-8.214315,15.867743 -43.706355,38.558615 -63.234726,43.477615c-1.239897,-31.100776 -44.326303,-37.60655 -85.707852,-37.60655z"/>
    </g>
</svg>
