<svg width="40" height="40" xmlns="http://www.w3.org/2000/svg">

 <g>
  <title>background</title>
  <rect fill="none" id="canvas_background" height="402" width="582" y="-1" x="-1"/>
 </g>
 <g>
  <title>Layer 1</title>
  <path id="svg_1" fill="#04BAAC" d="m9.140169,2.132637c-3.77918,0.6422 -6.82123,3.29157 -7.7787,6.77584c-0.34734,1.2605 -0.37284,1.999 -0.33042,11.7616c0.01684,8.9594 0.02543,9.1682 0.18638,9.8667c0.87279,3.733 3.66911,6.3907 7.65171,7.2656c0.51683,0.1124 1.17773,0.1365 5.43153,0.1526c4.3978,0.0321 4.8554,0.024 4.974,-0.0885c0.1185,-0.1124 0.1271,-1.5494 0.1271,-17.8388c0,-12.08267 -0.0253,-17.76663 -0.0762,-17.87111c-0.0762,-0.13639 -0.2118,-0.14444 -4.8214,-0.13639c-3.7454,0.00814 -4.8724,0.03222 -5.364,0.11246zm7.1094,17.87104l0,15.085l-3.203,-0.04c-2.9488,-0.0321 -3.2623,-0.048 -3.8554,-0.1845c-2.53355,-0.6183 -4.40632,-2.4649 -4.94019,-4.8733c-0.16946,-0.7546 -0.16946,-19.276 -0.00851,-20.01461c0.47453,-2.09546 2.00831,-3.82946 4.06729,-4.60821c1.03371,-0.39344 1.51681,-0.44153 4.88081,-0.44959l3.042,-0.00805l0,15.09326l0.017,0zm-6.4315,-10.53315c-0.4914,0.08829 -1.2455,0.44966 -1.65226,0.77875c-0.82194,0.6743 -1.23712,1.6377 -1.16936,2.7697c0.03393,0.5861 0.06777,0.7467 0.32199,1.2203c0.37284,0.7225 0.92355,1.2524 1.68633,1.6057c0.5254,0.2489 0.6609,0.273 1.3472,0.2971c0.6185,0.0239 0.8389,0 1.2541,-0.1367c1.7032,-0.5459 2.737,-2.1114 2.4404,-3.725c-0.3304,-1.9027 -2.254,-3.18711 -4.2284,-2.80985zm13.4053,-7.41015c-0.0338,0.02409 -0.0506,8.0925 -0.0506,17.9433c0,16.2414 0.0083,17.8871 0.1269,17.9352c0.2118,0.0723 6.3128,0.0483 7.0671,-0.0321c3.1944,-0.3452 6.0162,-2.1837 7.5414,-4.9133c0.1949,-0.3532 0.4575,-0.9393 0.5932,-1.3006c0.4915,-1.397 0.483,-1.0276 0.483,-11.7294c0,-8.542 -0.0168,-9.8185 -0.1271,-10.35633c-0.7795,-3.87779 -3.9062,-6.80814 -8.0075,-7.47443c-0.5509,-0.08829 -1.3981,-0.11238 -4.1352,-0.11238c-1.8981,-0.00813 -3.4656,0.01595 -3.4912,0.04004zm8.3974,16.2252c1.2287,0.3052 2.2286,1.1882 2.6438,2.3201c0.2626,0.6986 0.2542,1.7261 -0.0087,2.3686c-0.4827,1.18 -1.4234,2.0069 -2.6351,2.312c-1.9658,0.4818 -4.0589,-0.6421 -4.6267,-2.4887c-0.1695,-0.5621 -0.1609,-1.5175 0.0338,-2.1036c0.5849,-1.8223 2.6271,-2.8981 4.5929,-2.4084z"/>
 </g>
</svg>