<svg width="41" height="41" viewBox="0 -3 41 41" fill="none" xmlns="http://www.w3.org/2000/svg">
    <path d="M3.15749 17.0213C3.84871 17.0213 4.40971 16.4112 4.40971 15.6596C4.40971 13.0322 6.37631 10.8936 8.79246 10.8936C8.9659 10.8936 9.24514 10.9399 9.53941 11.0039V12.2553C9.53941 13.007 10.1004 13.617 10.7916 13.617C11.4829 13.617 12.0438 13.007 12.0438 12.2553V10.0637C12.7157 5.8063 16.0735 2.7234 20.0624 2.7234C24.0513 2.7234 27.4092 5.8063 28.081 10.0637V12.2553C28.081 13.007 28.6413 13.617 29.3332 13.617C30.025 13.617 30.5854 13.007 30.5854 12.2553V11.0039C30.8797 10.9399 31.1589 10.8936 31.3324 10.8936C33.7485 10.8936 35.7151 13.0322 35.7151 15.6596C35.7151 16.4112 36.2761 17.0213 36.9673 17.0213C37.6586 17.0213 38.2195 16.4112 38.2195 15.6596C38.2195 11.5302 35.1297 8.17021 31.3324 8.17021C31.0149 8.17021 30.6361 8.224 30.2749 8.29549C28.965 3.41242 24.8609 0 20.0624 0C15.2639 0 11.1598 3.41242 9.84933 8.29549C9.4887 8.224 9.1099 8.17021 8.79246 8.17021C4.99512 8.17021 1.90527 11.5302 1.90527 15.6596C1.90527 16.4112 2.46627 17.0213 3.15749 17.0213Z" fill="#04BAAC"/>
    <path d="M15.0527 21.1063C15.0527 21.858 15.6131 22.468 16.305 22.468H38.8448C39.5361 22.468 40.0971 21.858 40.0971 21.1063C40.0971 20.3547 39.5361 19.7446 38.8448 19.7446H16.305C15.6131 19.7446 15.0527 20.3547 15.0527 21.1063Z" fill="#04BAAC"/>
    <path d="M20.0618 24.5107C19.3699 24.5107 18.8096 25.1208 18.8096 25.8724C18.8096 26.6241 19.3699 27.2341 20.0618 27.2341H36.9667C37.6579 27.2341 38.2189 26.6241 38.2189 25.8724C38.2189 25.1208 37.6579 24.5107 36.9667 24.5107H20.0618Z" fill="#04BAAC"/>
    <path d="M38.8452 29.2764H23.8186C23.1268 29.2764 22.5664 29.8864 22.5664 30.6381C22.5664 31.3897 23.1268 31.9998 23.8186 31.9998H38.8452C39.5364 31.9998 40.0974 31.3897 40.0974 30.6381C40.0974 29.8864 39.5364 29.2764 38.8452 29.2764Z" fill="#04BAAC"/>
    <path d="M1.27858 22.468H12.5485C13.2398 22.468 13.8007 21.858 13.8007 21.1063C13.8007 20.3547 13.2398 19.7446 12.5485 19.7446H1.27858C0.58736 19.7446 0.0263672 20.3547 0.0263672 21.1063C0.0263672 21.858 0.58736 22.468 1.27858 22.468Z" fill="#04BAAC"/>
    <path d="M3.15749 24.5107C2.46627 24.5107 1.90527 25.1208 1.90527 25.8724C1.90527 26.6241 2.46627 27.2341 3.15749 27.2341H16.3058C16.997 27.2341 17.558 26.6241 17.558 25.8724C17.558 25.1208 16.997 24.5107 16.3058 24.5107H3.15749Z" fill="#04BAAC"/>
    <path d="M20.0618 29.2764H1.27858C0.58736 29.2764 0.0263672 29.8864 0.0263672 30.6381C0.0263672 31.3897 0.58736 31.9998 1.27858 31.9998H20.0618C20.7531 31.9998 21.314 31.3897 21.314 30.6381C21.314 29.8864 20.7531 29.2764 20.0618 29.2764Z" fill="#04BAAC"/>
</svg>
