<svg width="70" height="70" viewBox="0 0 70 70" fill="none" xmlns="http://www.w3.org/2000/svg">
<path fill-rule="evenodd" clip-rule="evenodd" d="M11.4974 27.3462C11.4281 27.3742 11.4099 28.9857 11.4099 35.0756V42.7698H13.8249H16.2399V38.959C16.2399 36.863 16.2658 35.1321 16.2975 35.1125C16.3617 35.0728 16.5899 35.313 16.5899 35.4207C16.5899 35.4586 16.6177 35.4898 16.6517 35.4898C16.6858 35.4898 16.7322 35.5449 16.7548 35.6123C16.7943 35.7297 16.8657 35.858 17.1931 36.3998C17.3646 36.6835 18.0452 37.9814 18.7351 39.3398C18.999 39.8595 19.2312 40.3005 19.251 40.3198C19.2707 40.339 19.4155 40.6068 19.5724 40.9148C19.7294 41.2228 20.0106 41.7662 20.1972 42.1223L20.5365 42.7698H23.1132C24.8074 42.7698 25.6899 42.7455 25.6899 42.6989C25.6899 42.6296 25.5496 42.3494 25.4799 42.2798C25.4358 42.2357 25.2881 41.9769 25.1002 41.6148C25.0204 41.4608 24.9392 41.319 24.9197 41.2998C24.9005 41.2805 24.8375 41.1703 24.7799 41.0548C24.7223 40.9393 24.6593 40.829 24.6401 40.8098C24.6207 40.7905 24.5372 40.6488 24.4544 40.4948C24.2652 40.1429 24.1804 39.9925 23.3537 38.5446C22.9832 37.8953 22.6799 37.3553 22.6799 37.3443C22.6799 37.3331 22.5539 37.1168 22.3999 36.8632C22.2459 36.6098 22.1199 36.3702 22.1199 36.331C22.1199 36.2918 22.0884 36.2598 22.0499 36.2598C22.0114 36.2598 21.9799 36.226 21.9799 36.1849C21.9799 36.065 21.566 35.4859 21.1984 35.0915C20.7924 34.6556 20.7892 34.6223 21.1231 34.2636C21.4537 33.9087 21.778 33.481 21.9052 33.2323C21.9593 33.1264 22.0298 33.0398 22.0618 33.0398C22.0937 33.0398 22.1199 33.006 22.1199 32.9649C22.1199 32.9238 22.2097 32.7584 22.3196 32.5974C22.4293 32.4364 22.5317 32.2719 22.5471 32.2316C22.5851 32.1321 23.7625 30.1537 24.0547 29.6983C24.184 29.4969 24.2899 29.3135 24.2899 29.2909C24.2899 29.2684 24.3844 29.1126 24.4999 28.9448C24.6154 28.777 24.7099 28.6195 24.7099 28.5948C24.7099 28.5701 24.8044 28.4126 24.9199 28.2448C25.0354 28.077 25.1299 27.9186 25.1299 27.893C25.1299 27.8673 25.1948 27.7551 25.2743 27.6435C25.5163 27.3038 25.4899 27.2998 22.9636 27.2998C20.3202 27.2998 20.4574 27.2749 20.1645 27.8073C20.0848 27.9517 19.9538 28.1879 19.8729 28.3323C19.7921 28.4767 19.6582 28.7208 19.5754 28.8748C19.4926 29.0288 19.4092 29.1705 19.3897 29.1898C19.3705 29.209 19.3075 29.3193 19.2499 29.4348C19.1923 29.5503 19.1293 29.6605 19.1101 29.6798C19.0907 29.699 19.0089 29.8408 18.9283 29.9948C18.8474 30.1488 18.7092 30.4008 18.6208 30.5548C18.5324 30.7088 18.3817 30.9765 18.2858 31.1498C17.2085 33.0967 16.9784 33.4981 16.9284 33.5181C16.8962 33.531 16.8699 33.5786 16.8699 33.6239C16.8699 33.7414 16.4321 34.2308 16.3274 34.2303C16.2586 34.23 16.2399 33.4985 16.2399 30.8073C16.2399 27.7509 16.228 27.3803 16.1291 27.3423C15.997 27.2916 11.6236 27.2952 11.4974 27.3462ZM27.2121 27.3481C27.0959 27.3785 27.0903 27.7887 27.1071 35.0575L27.1249 42.7348L29.3474 42.7533L31.5699 42.7717V38.6009V34.43L31.7248 34.4524C31.8728 34.4737 33.2756 36.4677 33.5751 37.0823C33.636 37.2074 33.7138 37.3098 33.748 37.3098C33.7821 37.3098 33.8099 37.3406 33.8099 37.3782C33.8099 37.416 34.0855 37.8652 34.4224 38.3766C34.7593 38.8881 35.1732 39.5267 35.342 39.7957C35.5109 40.0646 35.9125 40.6862 36.2345 41.1769C36.5565 41.6675 36.8199 42.1006 36.8199 42.1394C36.8199 42.1781 36.8462 42.2098 36.878 42.2098C36.91 42.2098 36.9809 42.2964 37.0355 42.4023C37.2319 42.7827 37.1435 42.7698 39.5452 42.7698H41.7906L41.7728 35.0523L41.7549 27.3348L39.7249 27.3152C38.6084 27.3043 37.624 27.3129 37.5374 27.3341L37.3799 27.3724V31.602C37.3799 36.3797 37.3825 36.3608 36.8777 35.3333C36.7882 35.1512 36.6913 35.0015 36.6624 35.0008C36.6335 35.0003 36.6099 34.966 36.6099 34.9249C36.6099 34.8838 36.5154 34.7126 36.3999 34.5448C36.2844 34.377 36.1899 34.2058 36.1899 34.1647C36.1899 34.1236 36.1637 34.0898 36.1318 34.0898C36.0998 34.0898 36.0289 34.0032 35.9743 33.8973C35.9195 33.7914 35.8511 33.6733 35.8219 33.6348C35.5606 33.2893 34.2999 31.3495 34.2999 31.2929C34.2999 31.2527 34.2723 31.2198 34.2385 31.2198C34.2045 31.2198 34.1377 31.1253 34.0899 31.0098C34.0421 30.8943 33.9753 30.7998 33.9413 30.7998C33.9076 30.7998 33.8799 30.7585 33.8799 30.7079C33.8799 30.6575 33.8169 30.5485 33.7399 30.4659C33.6629 30.3833 33.5999 30.2991 33.5999 30.2788C33.5999 30.2023 31.7635 27.4708 31.6558 27.3873C31.5458 27.3019 27.525 27.2664 27.2121 27.3481ZM43.65 27.3616C43.6292 27.3953 43.7868 27.7812 44.0005 28.2191C44.2142 28.6567 44.5012 29.251 44.638 29.5398C44.7751 29.8285 45.1161 30.5373 45.3961 31.1148C46.6925 33.7888 46.9148 34.2529 47.0469 34.5612L47.1883 34.8909L46.0223 37.2379C45.3811 38.5287 44.8225 39.6478 44.7808 39.7248C44.6268 40.0106 44.4406 40.3845 43.8656 41.5623L43.276 42.7698H45.753C48.1832 42.7698 48.2299 42.7672 48.2299 42.6298C48.2299 42.5528 48.2614 42.4898 48.2999 42.4898C48.3384 42.4898 48.3699 42.4422 48.3699 42.3839C48.3699 42.3256 48.3977 42.2233 48.4317 42.1564C48.4658 42.0896 48.5257 41.956 48.5647 41.8598C48.6039 41.7635 48.7021 41.5355 48.7829 41.353C48.8638 41.1706 48.9299 41.0049 48.9299 40.9848C48.9299 40.9647 48.9889 40.8147 49.0608 40.6516C49.1329 40.4883 49.2706 40.1658 49.3671 39.9348C49.4633 39.7038 49.6604 39.2313 49.8049 38.8848C49.9495 38.5383 50.1425 38.0885 50.2338 37.8852C50.3252 37.682 50.3999 37.5005 50.3999 37.482C50.3999 37.4634 50.4666 37.2989 50.5481 37.1166C50.6295 36.9341 50.7413 36.6824 50.7963 36.5573C50.9667 36.1702 51.0878 36.261 51.3799 36.9948C51.4105 37.0718 51.4837 37.245 51.5423 37.3798C51.6009 37.5145 51.717 37.798 51.7999 38.0098C51.8829 38.2215 51.9989 38.505 52.0575 38.6398C52.1161 38.7745 52.1893 38.9478 52.2199 39.0248C52.2505 39.1018 52.3226 39.275 52.3799 39.4098C52.4373 39.5445 52.6016 39.954 52.7449 40.3198C52.8882 40.6855 53.0526 41.095 53.11 41.2298C53.1672 41.3645 53.2393 41.5378 53.2701 41.6148C53.3009 41.6918 53.3921 41.9041 53.4729 42.0866C53.5538 42.2689 53.6199 42.4595 53.6199 42.5101C53.6199 42.7567 53.7494 42.7698 56.1889 42.7698C57.5095 42.7698 58.5899 42.7575 58.5899 42.7425C58.5899 42.7063 57.7436 40.9333 57.0158 39.4448C56.6959 38.7903 56.2383 37.8453 55.999 37.3448C55.7598 36.8443 55.3932 36.0794 55.1842 35.645L54.8041 34.8551L55.3393 33.72C55.6336 33.0956 56.0288 32.2687 56.2173 31.8825C56.4057 31.4961 56.5599 31.1417 56.5599 31.095C56.5599 31.0481 56.5914 31.0098 56.6299 31.0098C56.6684 31.0098 56.6997 30.9704 56.6994 30.9223C56.699 30.8742 56.8214 30.5828 56.9713 30.2748C57.8539 28.4614 58.2413 27.6335 58.2809 27.4758L58.3255 27.2979L56.0032 27.3164L53.681 27.3348L53.5823 27.5098C53.4601 27.7266 53.3088 28.0717 52.8459 29.1898C52.6466 29.671 52.4084 30.231 52.3167 30.4344C52.225 30.6376 52.1499 30.819 52.1499 30.8376C52.1499 30.8561 52.0838 31.0206 52.0029 31.203C51.9221 31.3855 51.8316 31.5978 51.8018 31.6748C51.7332 31.8519 51.4546 32.4759 51.3722 32.6364C51.3379 32.7033 51.3099 32.8056 51.3099 32.8639C51.3099 32.9222 51.2784 32.9698 51.2399 32.9698C51.2014 32.9698 51.1699 33.0295 51.1699 33.1023C51.1699 33.24 50.9946 33.3494 50.8836 33.2809C50.8486 33.2592 50.8199 33.1957 50.8199 33.1397C50.8199 33.0837 50.791 32.9833 50.7559 32.9164C50.6692 32.7523 50.5121 32.3846 50.3299 31.9198C50.247 31.708 50.1383 31.4403 50.0884 31.3248C49.8406 30.7501 49.625 30.2282 49.4526 29.7848C49.3478 29.5153 49.1917 29.1373 49.106 28.9448C49.02 28.7523 48.9066 28.4688 48.8538 28.3148C48.8009 28.1608 48.7021 27.9315 48.6338 27.8052C48.5657 27.6788 48.5099 27.5325 48.5099 27.4802C48.5099 27.4277 48.46 27.3656 48.3991 27.3423C48.2233 27.2748 43.6923 27.2931 43.65 27.3616Z" fill="#04BCAC"/>
<path fill-rule="evenodd" clip-rule="evenodd" d="M11.3025 27.2475C11.2843 27.2956 11.2773 30.8315 11.2873 35.105L11.3053 42.875L13.7509 42.8933C15.096 42.9035 16.2205 42.8877 16.2499 42.8583C16.2793 42.8289 15.1868 42.8135 13.8218 42.8242L11.3403 42.8435V35.035V27.2265L13.8253 27.2457C15.192 27.2564 16.3103 27.2413 16.3103 27.2125C16.3103 27.1145 11.3399 27.1493 11.3025 27.2475ZM20.2947 27.2825C20.2159 27.3868 20.2166 27.3918 20.3001 27.3175C20.3748 27.2508 21.0141 27.23 22.9825 27.23H25.5666L25.5274 27.3801C25.4994 27.4872 25.5097 27.5086 25.5634 27.4548C25.6049 27.4134 25.6199 27.3301 25.5968 27.2697C25.5288 27.0924 20.4293 27.1047 20.2947 27.2825ZM27.0661 27.2125C27.0481 27.2413 28.0745 27.2562 29.3469 27.2455C31.4779 27.2277 31.6718 27.2361 31.8078 27.3505L31.9553 27.475L31.8219 27.3175C31.6861 27.157 27.1622 27.0571 27.0661 27.2125ZM39.5599 27.2125L41.8445 27.2319L41.8864 27.3883C41.9413 27.5929 41.9413 42.477 41.8864 42.6816L41.8444 42.838L39.5249 42.8574L37.2053 42.8769L39.5345 42.8935L41.8638 42.91L41.932 42.7304C42.025 42.4861 42.025 27.5838 41.932 27.3395L41.8638 27.16L39.5695 27.1764L37.2753 27.193L39.5599 27.2125ZM37.2403 31.4592C37.2403 34.3924 37.2184 35.5556 37.1626 35.5741C37.1139 35.5904 37.1271 35.635 37.1976 35.6937C37.301 35.7794 37.3103 35.439 37.3103 31.5785C37.3103 29.2638 37.2945 27.37 37.2753 27.37C37.256 27.37 37.2403 29.2101 37.2403 31.4592ZM25.3459 27.7093C25.2316 27.923 25.2552 27.9825 25.3825 27.801C25.4441 27.713 25.4782 27.6244 25.4581 27.6045C25.4381 27.5843 25.3875 27.6316 25.3459 27.7093ZM43.5452 27.615C43.5452 27.6535 43.5903 27.7637 43.6453 27.86C43.7002 27.9562 43.7454 28.0035 43.7454 27.965C43.7454 27.9265 43.7002 27.8162 43.6453 27.72C43.5903 27.6237 43.5452 27.5765 43.5452 27.615ZM32.1693 27.9125C32.5925 28.564 32.7841 28.84 32.8133 28.84C32.8315 28.84 32.79 28.7533 32.7213 28.6475C32.2981 27.9959 32.1065 27.72 32.0773 27.72C32.0591 27.72 32.1005 27.8066 32.1693 27.9125ZM58.1134 28.1083C57.9025 28.5425 57.9262 28.6032 58.1433 28.1856C58.2405 27.9989 58.308 27.8342 58.2933 27.8197C58.2786 27.805 58.1978 27.9349 58.1134 28.1083ZM52.8569 28.7175C52.8239 28.8041 52.746 28.9969 52.6837 29.146C52.5605 29.4404 52.5369 29.5692 52.6377 29.3973C52.7437 29.216 52.9905 28.56 52.9525 28.56C52.9329 28.56 52.8898 28.6308 52.8569 28.7175ZM23.9242 30.1175C23.7711 30.3535 23.6337 30.6348 23.7105 30.555C23.8087 30.4529 24.0974 29.96 24.0591 29.96C24.0411 29.96 23.9804 30.0308 23.9242 30.1175ZM52.2903 30.0447C52.2903 30.0657 52.2427 30.1969 52.1844 30.3364C52.1261 30.4759 52.0941 30.59 52.1134 30.59C52.1688 30.59 52.3661 30.0825 52.3262 30.0426C52.3064 30.0228 52.2903 30.0238 52.2903 30.0447ZM49.922 30.6635C49.963 30.7811 50.0095 30.8642 50.0253 30.8483C50.0601 30.8136 49.928 30.45 49.8807 30.45C49.8625 30.45 49.8811 30.546 49.922 30.6635ZM23.4246 30.9575L23.2986 31.185L23.4429 31.01C23.5709 30.8547 23.6277 30.73 23.5703 30.73C23.5595 30.73 23.4939 30.8323 23.4246 30.9575ZM34.2676 31.08C34.379 31.2819 35.2994 32.6557 35.3697 32.725C35.4801 32.8338 35.3746 32.6599 34.8384 31.85C34.3964 31.1822 34.1139 30.801 34.2676 31.08ZM17.9577 31.4011C17.8925 31.5007 17.8512 31.5941 17.8659 31.6088C17.8806 31.6237 17.9479 31.5421 18.0155 31.4279C18.1663 31.1724 18.1212 31.1515 17.9577 31.4011ZM23.1745 31.3806C23.1218 31.4655 23.0329 31.6058 22.9766 31.6925C22.9202 31.7791 22.8894 31.85 22.908 31.85C22.9573 31.85 23.3253 31.2817 23.2954 31.2516C23.2814 31.2378 23.227 31.2957 23.1745 31.3806ZM22.7246 32.1475L22.5986 32.375L22.7429 32.2C22.8709 32.0447 22.9277 31.92 22.8703 31.92C22.8595 31.92 22.7939 32.0223 22.7246 32.1475ZM17.3253 32.55C17.2656 32.6655 17.2324 32.76 17.2516 32.76C17.2709 32.76 17.3356 32.6655 17.3953 32.55C17.455 32.4345 17.4882 32.34 17.469 32.34C17.4497 32.34 17.385 32.4345 17.3253 32.55ZM55.6188 33.3733C55.4198 33.7842 55.2957 34.09 55.3278 34.09C55.3696 34.09 55.7976 33.164 55.7691 33.1353C55.756 33.1224 55.6884 33.2295 55.6188 33.3733ZM46.6394 34.0725C46.6544 34.1013 46.7207 34.2431 46.7869 34.3875C46.8529 34.5318 46.923 34.65 46.9426 34.65C46.9624 34.65 46.9663 34.6263 46.9512 34.5975C46.9362 34.5686 46.8698 34.4268 46.8037 34.2825C46.7377 34.1381 46.6675 34.02 46.6479 34.02C46.6282 34.02 46.6243 34.0436 46.6394 34.0725ZM21.2171 34.328C20.9959 34.5562 20.9551 34.86 21.1455 34.86C21.1818 34.86 21.1727 34.7978 21.1252 34.7219C21.0502 34.6017 21.0699 34.552 21.2784 34.3369C21.41 34.2011 21.502 34.09 21.4828 34.09C21.4635 34.09 21.344 34.1971 21.2171 34.328ZM31.6938 38.7065C31.6837 40.976 31.6984 42.8098 31.7267 42.7817C31.7939 42.7143 31.8309 34.58 31.7638 34.58C31.7357 34.58 31.7042 36.4369 31.6938 38.7065ZM46.9584 34.86C46.9363 34.9562 46.8964 35.098 46.8698 35.175C46.8432 35.252 46.8726 35.2266 46.9351 35.1184C46.9978 35.0103 47.0377 34.8685 47.0237 34.8034C47.0056 34.7189 46.9869 34.7352 46.9584 34.86ZM32.1088 35.1454C32.1784 35.2639 32.2801 35.3977 32.3347 35.4429C32.3893 35.488 32.3459 35.3911 32.2379 35.2275C32.0113 34.8839 31.9219 34.8271 32.1088 35.1454ZM32.474 35.665C32.5954 35.9024 32.688 36.0188 32.6892 35.9352C32.6898 35.8914 32.6255 35.7812 32.5463 35.6902C32.4332 35.5603 32.4176 35.5549 32.474 35.665ZM55.4594 35.9625C55.4744 35.9913 55.5407 36.1331 55.6069 36.2775C55.6729 36.4218 55.743 36.54 55.7626 36.54C55.7824 36.54 55.7863 36.5163 55.7712 36.4875C55.7562 36.4586 55.6898 36.3168 55.6237 36.1725C55.5577 36.0281 55.4875 35.91 55.4679 35.91C55.4482 35.91 55.4443 35.9336 55.4594 35.9625ZM55.9362 36.925C55.9362 36.9635 55.9964 37.1052 56.0703 37.24C56.1441 37.3747 56.2043 37.4535 56.2043 37.415C56.2043 37.3765 56.1441 37.2347 56.0703 37.1C55.9964 36.9652 55.9362 36.8865 55.9362 36.925ZM17.6403 37.59C17.7189 37.744 17.7988 37.87 17.8181 37.87C17.8373 37.87 17.7889 37.744 17.7103 37.59C17.6317 37.436 17.5517 37.31 17.5325 37.31C17.5132 37.31 17.5617 37.436 17.6403 37.59ZM22.9533 37.625C23.0712 37.8533 23.1682 37.9799 23.1677 37.905C23.1673 37.8665 23.1027 37.7562 23.024 37.66C22.929 37.5438 22.9052 37.532 22.9533 37.625ZM23.2553 38.15C23.3113 38.2462 23.4753 38.5376 23.6197 38.7975C23.7642 39.0573 23.8972 39.27 23.9154 39.27C23.965 39.27 23.4352 38.3155 23.2846 38.1332L23.1537 37.975L23.2553 38.15ZM50.1553 38.3356C50.0965 38.4763 50.0646 38.6076 50.0844 38.6274C50.1042 38.6471 50.1203 38.6461 50.1203 38.6253C50.1203 38.6043 50.1679 38.473 50.2262 38.3335C50.2844 38.1941 50.3165 38.08 50.2972 38.08C50.278 38.08 50.2141 38.1951 50.1553 38.3356ZM17.9908 38.2357C17.9905 38.2637 18.0531 38.3897 18.1301 38.5157C18.2069 38.6419 18.2696 38.7135 18.2696 38.675C18.2694 38.6365 18.2068 38.5105 18.1303 38.395C18.0538 38.2795 17.991 38.2079 17.9908 38.2357ZM34.3026 38.4443C34.3003 38.4921 34.617 38.9831 34.6982 39.0582C34.766 39.1207 34.5274 38.6834 34.4128 38.535C34.3533 38.458 34.3038 38.4172 34.3026 38.4443ZM49.7685 39.235C49.7311 39.3312 49.6669 39.4966 49.6259 39.6025C49.585 39.7083 49.5802 39.7635 49.6154 39.725C49.6978 39.6345 49.9204 39.06 49.873 39.06C49.8531 39.06 49.8062 39.1387 49.7685 39.235ZM52.0852 39.0761C52.0771 39.1588 52.3053 39.6984 52.3354 39.6681C52.3507 39.6529 52.3018 39.5018 52.2268 39.3326C52.1517 39.1634 52.088 39.0479 52.0852 39.0761ZM35.0703 39.6392C35.0703 39.7057 35.7096 40.67 35.7537 40.67C35.7874 40.67 35.7064 40.5378 35.3037 39.9358C35.1753 39.7439 35.0703 39.6103 35.0703 39.6392ZM24.3253 40.04C24.385 40.1555 24.4497 40.25 24.469 40.25C24.4882 40.25 24.455 40.1555 24.3953 40.04C24.3356 39.9245 24.2709 39.83 24.2516 39.83C24.2324 39.83 24.2656 39.9245 24.3253 40.04ZM52.5384 40.2675C52.5647 40.3541 52.6149 40.4558 52.6501 40.4934C52.6853 40.531 52.6786 40.4601 52.6354 40.3359C52.5467 40.0816 52.4648 40.0239 52.5384 40.2675ZM49.3503 40.1947C49.3503 40.2157 49.3027 40.3469 49.2444 40.4864C49.1861 40.6259 49.1541 40.74 49.1734 40.74C49.2288 40.74 49.4261 40.2325 49.3862 40.1926C49.3664 40.1728 49.3503 40.1738 49.3503 40.1947ZM44.2298 40.4775C43.9974 40.9059 43.4787 42 43.5079 42C43.5263 42 43.7286 41.622 43.9575 41.16C44.3141 40.44 44.4919 39.9941 44.2298 40.4775ZM20.1533 42.385C20.2712 42.6133 20.3682 42.7399 20.3677 42.665C20.3673 42.6265 20.3027 42.5162 20.224 42.4199C20.129 42.3038 20.1052 42.292 20.1533 42.385ZM25.8072 42.6891L25.8462 42.8382L23.1607 42.8574L20.4753 42.8767L23.1551 42.8933C25.9509 42.9107 26.1213 42.893 25.8434 42.6151C25.7897 42.5614 25.7792 42.5824 25.8072 42.6891ZM58.6832 42.6389C58.7642 42.8946 58.6211 42.91 56.1653 42.91H53.7682L53.6593 42.7544C53.5993 42.6688 53.5503 42.6324 53.5503 42.6735C53.5503 42.9625 53.7034 42.98 56.2308 42.98C58.8271 42.98 58.9564 42.9616 58.7187 42.6261C58.6591 42.5418 58.6531 42.5439 58.6832 42.6389ZM27.0807 42.8585C27.1102 42.8879 28.1403 42.9037 29.3698 42.8933L31.6053 42.8748L29.3163 42.84C28.0572 42.8207 27.0513 42.8291 27.0807 42.8585ZM48.1452 42.847C48.0745 42.8865 47.0478 42.9058 45.6149 42.8942C44.2888 42.8837 43.2181 42.8986 43.2361 42.9275C43.2837 43.0045 48.1059 42.9901 48.2282 42.9128C48.3691 42.8237 48.2935 42.764 48.1452 42.847Z" fill="#C8F0EC"/>
<path fill-rule="evenodd" clip-rule="evenodd" d="M11.3726 27.3174C11.3544 27.3655 11.3474 30.8699 11.3573 35.1049L11.3754 42.8049L13.7729 42.8063L16.1704 42.8077L13.7904 42.7879L11.4104 42.7679V35.0765C11.4104 28.1273 11.421 27.3807 11.5211 27.3424C11.582 27.319 12.6189 27.2999 13.8254 27.2999C15.0318 27.2999 16.0687 27.319 16.1296 27.3424C16.2285 27.3804 16.2404 27.751 16.2404 30.8074C16.2404 33.4985 16.2591 34.23 16.3279 34.2304C16.4234 34.2307 16.8704 33.746 16.8704 33.6419C16.8704 33.6063 16.7837 33.6912 16.6779 33.8302C16.2983 34.3289 16.3104 34.4288 16.3104 30.8034C16.3104 28.9598 16.2913 27.4016 16.2678 27.3407C16.211 27.1924 11.4289 27.1699 11.3726 27.3174ZM20.278 27.4924C20.1878 27.6368 20.0113 27.943 19.886 28.1731C19.7605 28.4031 19.579 28.726 19.4824 28.8906C19.386 29.0551 19.3379 29.1899 19.3755 29.1899C19.4133 29.1899 19.4616 29.1348 19.4831 29.0674C19.5045 29 19.6294 28.7559 19.7607 28.5249C19.8917 28.2939 20.069 27.9789 20.1542 27.8249C20.4603 27.2722 20.3123 27.2999 22.964 27.2999C25.5019 27.2999 25.5178 27.3023 25.2672 27.6544C25.1835 27.7719 25.1314 27.8844 25.1515 27.9043C25.1872 27.94 25.5503 27.368 25.5503 27.2763C25.5503 27.2507 24.4009 27.2299 22.9962 27.2299H20.4421L20.278 27.4924ZM27.136 27.2824C27.1182 27.3113 28.0959 27.3253 29.3086 27.3137C31.2912 27.2946 31.5324 27.3044 31.6995 27.4121L31.8853 27.5316L31.752 27.3807C31.6153 27.2262 27.2288 27.1328 27.136 27.2824ZM37.3532 27.3396C37.3296 27.401 37.3103 29.3406 37.3103 31.6497C37.3103 34.4831 37.2871 35.8337 37.2389 35.804C37.1997 35.7798 37.0874 35.6015 36.9894 35.408C36.8912 35.2144 36.7964 35.0704 36.7787 35.0882C36.7223 35.1444 37.1975 35.9125 37.2731 35.8873C37.3214 35.8712 37.3513 34.4605 37.3634 31.6178L37.3814 27.3723L37.5384 27.334C37.6246 27.3128 38.6088 27.3044 39.7253 27.3153L41.7553 27.3349L41.7732 35.0524L41.791 42.7699H39.5157C38.0455 42.7699 37.2403 42.745 37.2403 42.6999C37.2403 42.6614 37.205 42.6299 37.1618 42.6299C37.1079 42.6299 37.1107 42.6631 37.171 42.7357C37.247 42.8271 37.5737 42.8392 39.5421 42.8232L41.8253 42.8049V35.0349V27.2649L39.6107 27.2463C37.6369 27.2299 37.3914 27.24 37.3532 27.3396ZM43.5727 27.4224C43.5988 27.5283 43.6515 27.6464 43.6896 27.6849C43.7323 27.7279 43.7307 27.6798 43.6856 27.5599C43.5818 27.2852 43.5127 27.292 46.1463 27.3146C47.4391 27.3258 48.4825 27.3113 48.4646 27.2824C48.4466 27.2535 47.328 27.2299 45.9786 27.2299H43.5251L43.5727 27.4224ZM53.5624 27.3767C53.5118 27.4574 53.4859 27.5389 53.5048 27.5577C53.5235 27.5766 53.5741 27.5262 53.6172 27.4458C53.6938 27.3023 53.7351 27.2999 56.0103 27.2999H58.3255L58.28 27.4808C58.2506 27.5981 58.2603 27.6459 58.3075 27.6166C58.3476 27.5918 58.3803 27.4947 58.3803 27.4007V27.2299H56.0171C53.6933 27.2299 53.6525 27.2323 53.5624 27.3767ZM31.888 27.6499C32.0035 27.8587 33.4798 30.0666 33.5494 30.1349C33.667 30.2502 33.5513 30.0654 32.7386 28.8399C32.0619 27.8195 31.7068 27.3228 31.888 27.6499ZM43.7538 27.8002C43.7474 27.8844 44.395 29.1985 44.4272 29.1664C44.4447 29.1488 44.3012 28.8241 44.1082 28.4447C43.9154 28.0653 43.7559 27.7754 43.7538 27.8002ZM24.8946 28.2783C24.7933 28.4316 24.7103 28.5755 24.7103 28.5982C24.7103 28.621 24.6158 28.7771 24.5003 28.9449C24.3848 29.1127 24.2903 29.2702 24.2903 29.2949C24.2903 29.3196 24.2002 29.4713 24.0901 29.6323C23.9801 29.7933 23.8364 30.0351 23.7709 30.1699L23.6519 30.4149L23.793 30.2399C23.8705 30.1436 23.9748 29.9861 24.0247 29.8899C24.0746 29.7936 24.258 29.4786 24.4324 29.1899C25.1163 28.0576 25.364 27.5692 24.8946 28.2783ZM57.9379 28.2482C57.7734 28.593 57.7965 28.6516 57.9685 28.3257C58.0466 28.1777 58.098 28.0443 58.083 28.0291C58.0678 28.0141 58.0025 28.1126 57.9379 28.2482ZM48.7903 28.1196C48.7903 28.1598 48.8412 28.3147 48.9037 28.4638C48.966 28.6129 49.0456 28.8101 49.0806 28.902C49.1157 28.9941 49.159 29.0544 49.1772 29.0364C49.1953 29.0182 49.1282 28.8012 49.0281 28.5541C48.8383 28.0851 48.7903 27.9974 48.7903 28.1196ZM53.037 28.5716C52.9737 28.7328 52.9333 28.8761 52.9473 28.8903C52.9613 28.9043 53.0253 28.7844 53.0895 28.6241C53.1536 28.4636 53.194 28.3203 53.1791 28.3054C53.1643 28.2906 53.1004 28.4103 53.037 28.5716ZM57.5099 29.13C57.3727 29.413 57.2622 29.676 57.2647 29.7147C57.2671 29.7532 57.3931 29.5357 57.5449 29.231C57.6966 28.9263 57.807 28.6631 57.79 28.6463C57.7732 28.6294 57.6471 28.8471 57.5099 29.13ZM52.431 30.0099C52.1902 30.5792 51.938 31.1709 51.8705 31.3249C51.5025 32.1635 51.4512 32.294 51.4785 32.3213C51.5051 32.3479 51.6398 32.0774 51.8005 31.6749C51.8313 31.5979 51.9225 31.3856 52.0033 31.2031C52.0842 31.0207 52.1503 30.855 52.1503 30.8349C52.1503 30.8147 52.2121 30.6648 52.2875 30.5017C52.5556 29.9216 52.9177 29.024 52.8934 28.9997C52.8797 28.986 52.6716 29.4406 52.431 30.0099ZM49.2152 29.136C49.2072 29.2188 49.4354 29.7583 49.4655 29.728C49.4807 29.7128 49.4319 29.5617 49.3568 29.3925C49.2817 29.2233 49.218 29.1078 49.2152 29.136ZM44.4537 29.3124C44.4594 29.4055 44.8637 30.1375 44.867 30.0612C44.8689 30.0206 44.7888 29.8237 44.689 29.6237C44.5201 29.2847 44.4458 29.1862 44.4537 29.3124ZM49.4938 29.8474C49.4908 29.9013 49.7917 30.6511 50.0865 31.3249C50.1371 31.4404 50.2647 31.7554 50.3699 32.0249C50.475 32.2944 50.5902 32.5464 50.6257 32.5849C50.6887 32.6531 50.6511 32.5499 50.1917 31.3949C49.8254 30.4737 49.4992 29.7504 49.4938 29.8474ZM18.7229 30.2574L18.612 30.4849L18.7546 30.3099C18.892 30.1413 18.9368 30.0299 18.8671 30.0299C18.8489 30.0299 18.784 30.1322 18.7229 30.2574ZM23.5056 30.6053C23.3543 30.8387 23.2312 31.0799 23.2636 31.0799C23.3147 31.0799 23.6715 30.5076 23.64 30.4763C23.6231 30.4593 23.5627 30.5174 23.5056 30.6053ZM18.4429 30.7474L18.332 30.9749L18.4746 30.7999C18.612 30.6313 18.6568 30.5199 18.5871 30.5199C18.5689 30.5199 18.504 30.6222 18.4429 30.7474ZM45.1503 30.7558C45.1503 30.7699 45.4933 31.4887 45.9126 32.3526C46.3319 33.2168 46.7435 34.0743 46.8275 34.2586C46.9114 34.4428 46.9953 34.5783 47.0141 34.5596C47.0438 34.5296 46.6488 33.6867 45.5229 31.3774C45.249 30.8158 45.1503 30.6511 45.1503 30.7558ZM34.1031 31.0449C34.1469 31.1411 34.21 31.2199 34.2431 31.2199C34.2764 31.2199 34.252 31.1411 34.1889 31.0449C34.1259 30.9486 34.0629 30.8699 34.0489 30.8699C34.0349 30.8699 34.0592 30.9486 34.1031 31.0449ZM23.0857 31.3053C22.9343 31.5387 22.8113 31.7799 22.8436 31.7799C22.8947 31.7799 23.2516 31.2076 23.2201 31.1763C23.2031 31.1593 23.1427 31.2174 23.0857 31.3053ZM18.0334 31.4624C17.9713 31.5573 17.9204 31.6504 17.9204 31.6693C17.9204 31.6882 17.8245 31.8665 17.7072 32.0653C17.59 32.2641 17.5086 32.4415 17.5264 32.4594C17.5445 32.4772 17.5971 32.4183 17.6439 32.3283C17.6904 32.2384 17.8374 31.968 17.9706 31.7274C18.2112 31.292 18.2488 31.1336 18.0334 31.4624ZM34.3003 31.3163C34.3003 31.3438 34.6283 31.8527 35.0292 32.4473C35.4301 33.042 35.7724 33.5682 35.7898 33.6167C35.8071 33.6651 35.8391 33.6886 35.861 33.6688C35.8829 33.6489 35.5642 33.1237 35.1526 32.5017C34.399 31.3625 34.3003 31.2251 34.3003 31.3163ZM56.0715 32.1736C55.8367 32.6596 55.6594 33.0722 55.6774 33.0904C55.6956 33.1086 55.7802 32.9707 55.865 32.7842C55.9499 32.5976 56.119 32.2401 56.2408 31.9899C56.4957 31.4654 56.5677 31.2899 56.5272 31.2899C56.5115 31.2899 56.3064 31.6875 56.0715 32.1736ZM22.6492 32.0287C22.5832 32.1295 22.5432 32.2259 22.5603 32.2431C22.5775 32.2602 22.6454 32.1918 22.7115 32.091C22.7775 31.9902 22.8175 31.8938 22.8004 31.8766C22.7832 31.8595 22.7154 31.9279 22.6492 32.0287ZM17.3334 32.7224C17.2713 32.8173 17.2204 32.9125 17.2204 32.9338C17.2204 32.9552 17.1413 33.098 17.0445 33.2513C16.9477 33.4046 16.8926 33.5297 16.922 33.5293C16.9514 33.5292 17.0954 33.3087 17.2419 33.0393C17.5047 32.557 17.5541 32.3855 17.3334 32.7224ZM21.9224 33.1867C21.7896 33.3993 21.8694 33.4277 22.0075 33.217C22.0714 33.1197 22.099 33.0399 22.0687 33.0399C22.0386 33.0399 21.9728 33.106 21.9224 33.1867ZM50.8259 33.1232C50.8228 33.1883 50.849 33.2593 50.884 33.281C50.9899 33.3463 51.1707 33.2425 51.1647 33.1198C51.1612 33.0472 51.1462 33.0371 51.1239 33.0924C51.1045 33.1405 51.0466 33.1799 50.9953 33.1799C50.944 33.1799 50.8861 33.1405 50.8667 33.0924C50.845 33.0385 50.8292 33.0504 50.8259 33.1232ZM21.5819 33.7224C21.4744 33.8667 21.2683 34.1109 21.1241 34.2649C20.7877 34.624 20.7904 34.6448 21.2293 35.1229C21.4321 35.3441 21.671 35.643 21.76 35.7874C21.8489 35.9317 21.9368 36.0499 21.955 36.0499C22.0269 36.0499 21.7152 35.5903 21.3329 35.1327C20.859 34.5655 20.8658 34.6 21.1687 34.3063C21.4134 34.0692 21.8773 33.4599 21.8132 33.4599C21.7936 33.4599 21.6895 33.578 21.5819 33.7224ZM55.206 33.9955C55.0616 34.2874 54.9578 34.5407 54.9755 34.5583C54.9932 34.5762 55.1216 34.3475 55.2608 34.0503C55.5892 33.3487 55.5469 33.3064 55.206 33.9955ZM35.9149 33.7749C35.9147 33.8751 36.1118 34.1219 36.1564 34.0771C36.177 34.0566 36.131 33.9644 36.0544 33.8723C35.9777 33.7801 35.9149 33.7364 35.9149 33.7749ZM36.1903 34.1903C36.1903 34.2174 36.2848 34.377 36.4003 34.5449C36.5158 34.7127 36.6103 34.8838 36.6103 34.925C36.6103 34.9661 36.6445 34.9999 36.6861 34.9999C36.7278 34.9999 36.6903 34.8817 36.6032 34.7374C36.4051 34.4096 36.1903 34.125 36.1903 34.1903ZM31.5873 38.6175L31.6043 42.8049L31.6228 38.6574C31.6374 35.4095 31.6603 34.51 31.7284 34.5109C31.7761 34.5114 32.1904 35.0786 32.6489 35.7714C33.1072 36.4643 33.4952 37.0183 33.5107 37.0027C33.5877 36.9257 31.8705 34.4736 31.7247 34.4525L31.5703 34.4301L31.5873 38.6175ZM47.0445 34.8599C47.0445 35.0597 47.0576 35.0823 47.1159 34.9824C47.1644 34.8992 47.1644 34.8205 47.1159 34.7374C47.0576 34.6374 47.0445 34.66 47.0445 34.8599ZM54.8635 34.7356C54.8175 34.8525 54.9797 35.3499 55.0637 35.3499C55.0866 35.3499 55.0819 35.2947 55.0534 35.2274C55.0249 35.16 54.9811 34.9946 54.9563 34.8599C54.9227 34.6782 54.8987 34.6462 54.8635 34.7356ZM16.2768 35.1463C16.2559 35.2006 16.2474 36.9301 16.2579 38.9899L16.2766 42.7349L16.2936 38.9297C16.3104 35.1353 16.3107 35.1248 16.4481 35.2897C16.5237 35.3805 16.5867 35.4298 16.5881 35.3994C16.5933 35.2715 16.3153 35.0455 16.2768 35.1463ZM46.6515 35.819C46.467 36.1962 46.3039 36.5285 46.289 36.5574C46.2742 36.5862 46.2789 36.6099 46.2995 36.6099C46.3527 36.6099 47.0519 35.1981 47.0163 35.1626C47.0001 35.1463 46.8359 35.4417 46.6515 35.819ZM16.7153 35.7174C17.0065 36.2026 17.4225 36.9443 17.6402 37.3653C17.7653 37.6077 17.8805 37.7932 17.896 37.7776C17.9249 37.7488 17.3299 36.6209 16.9846 36.0499C16.88 35.8766 16.7762 35.6797 16.7542 35.6124C16.7321 35.545 16.6836 35.4899 16.6465 35.4899C16.6093 35.4899 16.6404 35.5922 16.7153 35.7174ZM55.375 35.9914C55.3724 36.017 55.6253 36.5682 55.9371 37.2164C56.2488 37.8646 56.63 38.6568 56.7841 38.9771C56.9381 39.2973 57.0778 39.5458 57.0942 39.5292C57.1107 39.5128 56.7318 38.6995 56.252 37.722C55.7723 36.7446 55.3777 35.9659 55.375 35.9914ZM22.1204 36.3472C22.1204 36.4168 22.6121 37.2399 22.6539 37.2399C22.6741 37.2399 22.589 37.0587 22.4649 36.8374C22.2366 36.43 22.1204 36.2646 22.1204 36.3472ZM50.7815 36.5733C50.7157 36.7117 50.6789 36.8419 50.6997 36.8626C50.7206 36.8834 50.7781 36.7877 50.828 36.6501C50.9157 36.4072 51.0517 36.3253 51.1243 36.4716C51.1439 36.5112 51.1518 36.5031 51.1418 36.4541C51.1022 36.2586 50.8987 36.3258 50.7815 36.5733ZM46.0579 37.012C45.9672 37.1951 45.8816 37.3685 45.8675 37.3974C45.8535 37.4262 45.8568 37.4499 45.875 37.4499C45.9189 37.4499 46.2752 36.7315 46.2458 36.7021C46.2332 36.6893 46.1485 36.8288 46.0579 37.012ZM50.5093 37.2059C50.4495 37.3494 50.4003 37.4779 50.4003 37.4913C50.4003 37.5048 50.3254 37.6821 50.2341 37.8853C49.9185 38.5861 49.4903 39.6186 49.4931 39.6717C49.4968 39.7424 49.7099 39.3133 49.8664 38.9199C49.9353 38.7466 50.0353 38.5104 50.0883 38.3949C50.348 37.8298 50.6749 37.001 50.6483 36.9746C50.6318 36.9581 50.5694 37.0622 50.5093 37.2059ZM22.6804 37.3372C22.6804 37.352 22.984 37.8954 23.355 38.5447C23.726 39.1937 24.1374 39.9139 24.269 40.1449C24.4008 40.3759 24.5262 40.62 24.5476 40.6874C24.5691 40.7547 24.6174 40.8099 24.6552 40.8099C24.6928 40.8099 24.6454 40.676 24.55 40.5124C24.3098 40.1009 24.0964 39.7224 23.8499 39.2699C23.7346 39.0581 23.6166 38.8534 23.5877 38.8149C23.5589 38.7764 23.4743 38.6346 23.4 38.4999C22.764 37.3487 22.6804 37.2134 22.6804 37.3372ZM33.7157 37.3974C33.7451 37.4455 34.0342 37.8944 34.3583 38.3949C34.6822 38.8954 35.105 39.549 35.2977 39.8474C35.4903 40.1457 35.6617 40.3899 35.6783 40.3899C35.729 40.3899 35.3773 39.8257 34.4228 38.3767C34.086 37.8653 33.8103 37.4161 33.8103 37.3783C33.8103 37.3407 33.7769 37.3099 33.7361 37.3099C33.695 37.3099 33.6859 37.3487 33.7157 37.3974ZM51.4699 37.3799C51.5555 37.6035 52.1675 39.1057 52.2541 39.3049C52.3043 39.4204 52.3652 39.5745 52.3895 39.6473C52.4137 39.7203 52.4513 39.7621 52.473 39.7406C52.4945 39.7189 52.4592 39.5805 52.3941 39.433C52.3292 39.2856 52.2509 39.1019 52.2203 39.0249C52.1897 38.9479 52.1167 38.7746 52.0583 38.6399C52 38.5051 51.8659 38.1744 51.7608 37.9049C51.6556 37.6354 51.538 37.3834 51.4997 37.3449C51.4531 37.2983 51.4431 37.3099 51.4699 37.3799ZM17.9204 37.8963C17.9204 37.9514 18.5029 39.028 18.5689 39.0949C18.6646 39.192 18.6338 39.1215 18.2865 38.4474C18.031 37.9516 17.9204 37.7852 17.9204 37.8963ZM44.706 39.7424L44.5858 40.0049L44.7265 39.8299C44.8478 39.679 44.917 39.4799 44.8483 39.4799C44.8362 39.4799 44.7722 39.598 44.706 39.7424ZM49.3279 40.0082C49.2632 40.1436 49.2126 40.2929 49.2152 40.3398C49.218 40.3865 49.2817 40.2864 49.3568 40.1172C49.5202 39.7488 49.4957 39.6563 49.3279 40.0082ZM52.5061 39.8692C52.5008 39.9359 52.5801 40.1268 52.8379 40.6699L52.921 40.8449L52.876 40.6699C52.8139 40.4287 52.5131 39.7777 52.5061 39.8692ZM19.5531 41.0374C19.7612 41.432 20.0496 41.9846 20.1943 42.2657C20.3389 42.5466 20.4701 42.7634 20.4859 42.7476C20.5018 42.7317 20.3571 42.4232 20.1644 42.0618C19.9717 41.7004 19.6952 41.1613 19.5498 40.8636C19.4044 40.5659 19.2605 40.3218 19.2301 40.3211C19.1996 40.3204 19.345 40.6427 19.5531 41.0374ZM44.0762 40.9957C43.8931 41.3644 43.7549 41.6779 43.7694 41.6922C43.7838 41.7066 43.9446 41.4159 44.1269 41.0465C44.3091 40.6769 44.4472 40.3634 44.4337 40.35C44.4202 40.3365 44.2594 40.627 44.0762 40.9957ZM49.0393 40.7059C48.8883 41.0675 48.9083 41.1084 49.0785 40.7857C49.1566 40.6377 49.2042 40.5005 49.1844 40.4807C49.1646 40.4609 49.0994 40.5622 49.0393 40.7059ZM57.5436 40.469C57.5372 40.5537 57.905 41.3084 57.9372 41.2764C57.9551 41.2586 57.8746 41.0596 57.7584 40.8344C57.6422 40.6091 57.5456 40.4446 57.5436 40.469ZM24.7399 40.9499C24.7621 41.0076 24.7998 41.11 24.8234 41.1774C24.8472 41.2447 24.8957 41.2999 24.931 41.2999C24.9945 41.2999 24.9335 41.1609 24.7774 40.9499C24.7082 40.8566 24.7042 40.8566 24.7399 40.9499ZM36.2073 41.2474C36.264 41.334 36.4131 41.5718 36.5386 41.7759C36.6641 41.9799 36.781 42.1325 36.7985 42.115C36.8322 42.0812 36.1926 41.0899 36.137 41.0899C36.1189 41.0899 36.1506 41.1607 36.2073 41.2474ZM25.1342 41.6849C25.1338 41.7234 25.1951 41.8336 25.2703 41.9299C25.3456 42.0261 25.4079 42.1442 25.4088 42.1924C25.4096 42.2405 25.4427 42.2799 25.4821 42.2799C25.5241 42.2799 25.5117 42.1997 25.4525 42.0874C25.315 41.8266 25.1349 41.5989 25.1342 41.6849ZM58.1003 41.6866C58.1003 41.7067 58.2106 41.9423 58.3453 42.2099C58.4801 42.4774 58.5903 42.713 58.5903 42.7331C58.5903 42.8169 53.7888 42.7704 53.7043 42.6859C53.6481 42.6297 53.6203 42.6272 53.6203 42.6783C53.6203 42.8444 58.5196 42.9408 58.6211 42.7769C58.6425 42.742 58.5464 42.4743 58.4074 42.1819C58.1808 41.7046 58.1003 41.5748 58.1003 41.6866ZM43.4383 42.2835C43.1385 42.8992 42.9009 42.8455 45.8157 42.8224L48.2653 42.8029L45.7665 42.7865L43.2679 42.7699L43.4605 42.4024C43.6824 41.9789 43.7601 41.7899 43.7122 41.7899C43.6936 41.7899 43.5704 42.0119 43.4383 42.2835ZM53.3433 41.9824C53.3471 42.0525 53.6137 42.5371 53.6173 42.4809C53.6222 42.4085 53.4112 41.9299 53.3744 41.9299C53.3557 41.9299 53.3417 41.9535 53.3433 41.9824ZM36.9332 42.387C36.9971 42.4844 37.0629 42.5506 37.0797 42.5338C37.1212 42.4923 36.94 42.2099 36.872 42.2099C36.8417 42.2099 36.8693 42.2897 36.9332 42.387ZM25.6903 42.6957C25.6903 42.7462 24.8713 42.7751 23.1179 42.7865L20.5454 42.8031L23.0876 42.8224C25.4186 42.84 25.9913 42.8077 25.7693 42.6705C25.7259 42.6435 25.6903 42.6549 25.6903 42.6957ZM27.1507 42.7884C27.1803 42.8178 28.1788 42.8336 29.3699 42.8234L31.5353 42.8047L29.3163 42.7699C28.0957 42.7506 27.1213 42.759 27.1507 42.7884Z" fill="#54D0C7"/>
<path fill-rule="evenodd" clip-rule="evenodd" d="M44.8127 27.2122C45.4552 27.2237 46.5262 27.2237 47.1927 27.2122C47.8593 27.2008 47.3338 27.1913 46.0248 27.1913C44.7158 27.1912 44.1703 27.2006 44.8127 27.2122ZM54.9017 27.2122C55.549 27.2239 56.5885 27.2237 57.2117 27.2122C57.8348 27.2006 57.3053 27.1912 56.0348 27.1912C54.7643 27.1912 54.2543 27.2006 54.9017 27.2122ZM27.0665 27.2766C27.0016 27.3413 27.0074 42.7539 27.0723 42.794C27.1012 42.8119 27.1248 39.3173 27.1248 35.0282C27.1248 30.7391 27.1222 27.2298 27.119 27.2298C27.1157 27.2298 27.0921 27.2508 27.0665 27.2766ZM31.8155 27.4748C32.096 27.8644 32.1736 27.9367 32.0173 27.6626C31.9445 27.5349 31.8239 27.3774 31.7494 27.3126C31.6706 27.2442 31.6983 27.3119 31.8155 27.4748ZM41.8936 35.0348C41.8936 39.2314 41.902 40.9584 41.9123 38.8728C41.9226 36.7871 41.9226 33.3536 41.9123 31.2428C41.902 29.1319 41.8936 30.8383 41.8936 35.0348ZM48.686 27.7687C48.791 28.0198 48.8598 28.1332 48.8598 28.0551C48.8598 27.9795 48.6472 27.5098 48.6129 27.5098C48.5936 27.5098 48.6265 27.6264 48.686 27.7687ZM19.0773 29.511C19.012 29.6105 18.9707 29.704 18.9854 29.7187C19.0001 29.7336 19.0675 29.652 19.135 29.5377C19.2859 29.2822 19.2407 29.2614 19.0773 29.511ZM33.6388 30.2223C34.062 30.8739 34.2536 31.1498 34.2828 31.1498C34.301 31.1498 34.2596 31.0632 34.1908 30.9573C33.7676 30.3058 33.576 30.0298 33.5468 30.0298C33.5286 30.0298 33.5701 30.1165 33.6388 30.2223ZM17.6048 32.1298C17.5451 32.2453 17.5119 32.3398 17.5311 32.3398C17.5504 32.3398 17.6151 32.2453 17.6748 32.1298C17.7345 32.0143 17.7677 31.9198 17.7485 31.9198C17.7292 31.9198 17.6645 32.0143 17.6048 32.1298ZM22.5129 32.3748C22.4507 32.4711 22.3489 32.6365 22.2866 32.7423L22.1732 32.9348L22.3141 32.7644C22.4803 32.5631 22.701 32.1998 22.6569 32.1998C22.6397 32.1998 22.575 32.2786 22.5129 32.3748ZM21.8253 33.4698C21.6442 33.7363 21.5262 33.9357 21.5631 33.9127C21.6505 33.8588 22.2098 33.0358 22.1786 33.0073C22.1655 32.9952 22.0066 33.2035 21.8253 33.4698ZM16.9237 33.3373C16.7706 33.5734 16.6332 33.8546 16.71 33.7748C16.8082 33.6728 17.097 33.1798 17.0586 33.1798C17.0406 33.1798 16.9799 33.2507 16.9237 33.3373ZM35.8183 33.5353C35.8879 33.6537 35.9896 33.7876 36.0442 33.8328C36.0988 33.8779 36.0554 33.781 35.9474 33.6173C35.7208 33.2738 35.6314 33.2169 35.8183 33.5353ZM21.189 34.2853C20.9249 34.5557 20.8754 34.678 20.9989 34.7543C21.0394 34.7793 21.05 34.7498 21.0247 34.6836C20.996 34.6087 21.0724 34.4762 21.2497 34.2949C21.3974 34.1436 21.5024 34.0198 21.4832 34.0198C21.4639 34.0198 21.3316 34.1394 21.189 34.2853ZM31.6398 38.6341C31.6398 41.3807 31.6158 42.77 31.5681 42.7938C31.5287 42.8134 31.5366 42.8213 31.5856 42.8113C31.6564 42.797 31.6785 41.9514 31.6928 38.7078C31.7068 35.5462 31.7306 34.6099 31.7978 34.5672C31.8594 34.528 31.8491 34.5116 31.7623 34.5109C31.647 34.5098 31.6398 34.7526 31.6398 38.6341ZM16.3123 35.1787C16.3151 35.249 16.6589 35.692 16.6595 35.626C16.6596 35.6045 16.5811 35.4802 16.4848 35.3498C16.3886 35.2195 16.3109 35.1425 16.3123 35.1787ZM21.9709 36.0149C22.0087 36.0919 22.0908 36.2178 22.1536 36.2948L22.2675 36.4348L22.1987 36.2948C22.1609 36.2178 22.0789 36.0919 22.016 36.0149L21.9021 35.8749L21.9709 36.0149ZM33.4509 37.0649C33.4887 37.1419 33.5708 37.2679 33.6336 37.3449L33.7475 37.4849L33.6787 37.3449C33.6409 37.2679 33.5589 37.1419 33.496 37.0649L33.3821 36.9249L33.4509 37.0649ZM34.7109 39.0249C34.7487 39.1019 34.8308 39.2279 34.8936 39.3049L35.0075 39.4449L34.9387 39.3049C34.9009 39.2279 34.8189 39.1019 34.756 39.0249L34.6421 38.8849L34.7109 39.0249ZM57.2661 39.7949C57.2661 39.8334 57.342 40.0066 57.4348 40.1799C57.5275 40.3531 57.6035 40.4634 57.6035 40.4249C57.6035 40.3864 57.5275 40.2131 57.4348 40.0399C57.342 39.8666 57.2661 39.7564 57.2661 39.7949ZM35.8064 40.7094C35.8715 40.8275 35.987 41.0008 36.0631 41.0944L36.2015 41.2649L36.0832 41.0503C36.0181 40.9322 35.9026 40.7589 35.8265 40.6653L35.6881 40.4949L35.8064 40.7094ZM49.0112 40.9178C48.8939 41.1753 48.9163 41.2302 49.043 40.9962C49.1023 40.8869 49.1377 40.7843 49.1216 40.7684C49.1057 40.7523 49.056 40.8197 49.0112 40.9178ZM19.7748 41.5799C19.8345 41.6954 19.8992 41.7899 19.9185 41.7899C19.9377 41.7899 19.9045 41.6954 19.8448 41.5799C19.7851 41.4644 19.7204 41.3699 19.7011 41.3699C19.6819 41.3699 19.7151 41.4644 19.7748 41.5799ZM25.1324 41.5449C25.1328 41.5834 25.1974 41.6936 25.2761 41.7899C25.3711 41.9061 25.3949 41.9178 25.3468 41.8249C25.2289 41.5965 25.1319 41.47 25.1324 41.5449ZM53.4147 42.2449C53.4147 42.2834 53.4598 42.3936 53.5148 42.4899C53.5697 42.5861 53.6149 42.6334 53.6149 42.5949C53.6149 42.5564 53.5697 42.4461 53.5148 42.3499C53.4598 42.2536 53.4147 42.2064 53.4147 42.2449ZM36.8902 42.3906C36.8903 42.426 36.9717 42.5494 37.0709 42.6649L37.2514 42.8749L37.0933 42.6299C36.8905 42.3156 36.8898 42.3147 36.8902 42.3906ZM58.616 42.7716C58.569 42.8187 57.7102 42.8369 56.1237 42.8241C54.7923 42.8136 53.7176 42.8285 53.7356 42.8574C53.8049 42.9695 58.5653 42.9188 58.6598 42.8049C58.7581 42.6864 58.7258 42.6619 58.616 42.7716ZM43.2502 42.8582C43.2796 42.8876 44.3884 42.9034 45.7142 42.8932L48.1248 42.8747L45.6608 42.8399C44.3054 42.8206 43.2208 42.8288 43.2502 42.8582Z" fill="#9EE3DF"/>
</svg>
