<svg width="1067" height="1067" viewBox="0 0 1067 1067" fill="none" xmlns="http://www.w3.org/2000/svg">
<path d="M355.333 199.467C338.8 203.6 329.467 210.267 322.667 222.8L318 231.333L317.6 254.8L317.067 278.267L311.333 279.067C303.2 280.267 296.533 284.667 292.267 291.867L288.667 298L288.267 511.6L288 725.334H125.333V705.334H190.667C236.533 705.334 256.8 704.934 259.2 703.867C265.867 700.8 266.8 695.734 266.4 667.334L266 641.334L262.267 637.734L258.667 634L192 633.6L125.333 633.2V613.334H257.333L261.6 609.467L266 605.6V549.333L262.267 545.733L258.667 542L192 541.6L125.333 541.2V521.467L192 521.067L258.667 520.667L262.267 516.934L266 513.334V457.067L261.6 453.2L257.333 449.333H125.333V316.267L121.867 312.133C117.067 306.4 109.467 306.267 103.867 311.867L100 315.733V466.934L103.867 470.8L107.733 474.667H240V496H107.733L103.867 499.867L100 503.733V558.934L103.867 562.8L107.733 566.667H240V588H107.733L103.867 591.867L100 595.733V650.4L103.467 654.534L106.933 658.667H240V680H108.133L104.4 683.2L100.667 686.4L100.267 714.4L99.8667 742.4L103.867 746.934L107.733 751.334L197.733 751.734L287.733 752L288.667 757.734C289.2 760.8 290.4 764.8 291.333 766.667C295.067 773.867 304.8 780 312.533 780H317.2L317.6 806.267C318 831.6 318.133 832.934 321.6 840.267C328.8 855.734 341.867 864.4 359.333 865.067C372.4 865.734 382.133 862.534 390.933 854.8C403.333 843.867 406.667 832.134 406.667 799.6V780H422.667V800.4C422.667 811.6 423.333 824.4 424.133 828.8C427.067 844.667 437.333 857.334 451.867 862.8C462.267 866.667 477.733 866 487.333 861.067C495.867 856.534 504.4 847.734 508.267 839.334C511.067 833.2 511.333 830.4 511.733 806.267L512.267 780H529.067L529.6 806.267C530 829.867 530.4 833.334 532.934 838.934C536.8 847.334 545.867 856.8 554 861.067C563.6 866 579.067 866.667 589.467 862.8C600 858.8 608.267 851.067 613.6 840.267L618 831.334L618.4 805.6L618.934 779.867L627.067 780.267L635.334 780.667L636 807.334C636.667 833.334 636.8 834.134 640.4 841.067C645.067 850 652.4 857.334 660.8 861.467C666.267 864.134 669.334 864.667 680 864.667C690.8 864.667 693.734 864.134 699.334 861.467C707.734 857.2 715.867 849.067 720.134 840.667C723.067 834.4 723.334 832.267 724 807.334L724.667 780.667L732.8 780.267L741.067 779.867L741.467 805.6L742 831.334L746.4 840.267C751.734 851.067 760 858.8 770.534 862.8C780.934 866.667 796.4 866 806 861.067C814.134 856.8 823.2 847.334 827.067 838.934C829.734 833.334 830 830 830.4 806.267L830.934 780H847.734L848.267 806.267C848.667 836.4 850 841.067 860.4 851.734C868.934 860.667 877.334 864.4 890 865.067C903.067 865.734 912.667 862.534 921.6 854.8C933.867 843.867 937.334 832.134 937.334 799.867V780.4L943.334 779.734C950.534 778.8 956.934 774.8 961.467 768.134L964.667 763.334L965.067 532.667C965.334 371.333 965.067 300.533 964 297.067C961.2 287.467 950.4 278.8 941.2 278.667H937.734L937.067 256.133C936.534 234 936.4 233.467 932.267 224.933C924.4 208.933 909.734 199.6 892.8 199.6C874.667 199.6 859.734 208.933 852.267 225.067C848.934 232.267 848.667 234 848.267 255.6L847.734 278.667H830.667V258.267C830.667 235.333 829.2 228.4 822.534 218.133C813.867 205.2 795.2 197.067 780 199.733C764.134 202.533 752.4 211.6 745.734 226C742.267 233.467 742.134 235.333 741.6 256.267L741.067 278.667H724V256.667C724 237.867 723.6 233.733 721.334 227.467C717.467 217.333 709.6 208.933 699.2 203.867C691.6 200.133 689.067 199.467 680 199.467C670.934 199.467 668.4 200.133 660.8 203.867C651.334 208.533 644.534 215.333 639.734 225.2C636.934 230.8 636.667 233.6 636.267 254.933L635.734 278.667H618.934L618.4 256.267C617.6 230 616.134 224.667 606.667 214.267C595.2 201.6 579.334 196.667 563.867 200.667C549.867 204.133 539.6 212.667 533.467 225.333C530.267 232.133 530 234.133 529.6 255.6L529.067 278.667H512V258.267C512 235.333 510.533 228.4 503.867 218.133C495.2 205.2 476.533 197.067 461.333 199.733C445.467 202.533 433.733 211.733 426.933 226.533C423.733 233.333 423.467 235.867 422.933 256.267L422.267 278.667H406.667V262.267C406.667 233.867 402.933 221.333 391.6 211.067C382.267 202.8 364.933 197.2 355.333 199.467V199.467ZM370.667 227.333C372.667 228.4 375.733 231.333 377.2 233.733C379.733 237.867 380 240.267 380 258.533V278.667H342.667V260.133C342.667 249.867 343.333 239.867 344.133 237.733C345.867 233.2 350.4 228.133 354 226.667C358.267 224.8 366.533 225.2 370.667 227.333V227.333ZM479.467 229.467C485.6 235.067 486.667 239.6 486.667 260V278.667H449.333V258.667C449.333 236.133 450.4 232.533 457.733 227.867C463.733 224.133 474.667 224.933 479.467 229.467ZM582.8 227.333C590.8 231.467 592 235.733 592 258.267V278.667H554.4L554.934 258.267C555.2 241.333 555.733 237.2 557.733 234.267C563.067 226.133 574.267 223.067 582.8 227.333ZM690 228C697.334 232.533 698.667 237.2 698.667 259.2V278.667H661.334V259.2C661.334 241.867 661.6 239.2 664.134 234.8C665.6 232 668.534 228.8 670.4 227.6C675.334 224.533 684.667 224.667 690 228ZM798.667 230C804.134 235.333 805.334 240.533 805.334 260.933V278.667H768V258.667C768 236.133 769.067 232.533 776.4 227.867C782.8 223.867 793.334 224.933 798.667 230ZM901.467 227.333C909.467 231.467 910.667 235.733 910.667 258.267V278.667H873.334V260.133C873.334 249.867 874 239.867 874.8 237.733C876.534 233.2 881.067 228.133 884.667 226.667C889.067 224.8 897.2 225.2 901.467 227.333V227.333ZM937.067 529.6L936.667 751.334L627.067 751.734L317.333 752V308H937.334L937.067 529.6ZM380 803.067C380 822.8 379.6 826.667 377.6 830.534C372.667 839.6 360.4 842.667 351.867 836.934C343.733 831.6 342.667 827.467 342.667 802.267V780H380V803.067ZM486 804C486 830 485.334 832.267 476.934 837.334C468.4 842.534 456.4 839.334 451.733 830.534C449.733 826.667 449.333 822.8 449.333 802.934V779.867L467.733 780.267L486 780.667V804ZM592 803.6C592 824.534 591.734 827.867 589.467 831.467C584.534 839.6 571.6 842.267 563.334 836.8C556.667 832.4 555.334 827.734 554.934 804.934C554.667 793.334 554.8 783.067 555.2 782C555.734 780.4 559.467 780 574 780H592V803.6ZM698.667 802.934C698.667 823.6 698.4 826.4 696 830.4C690.267 839.734 678.934 842.667 670.534 836.934C662.4 831.6 661.334 827.467 661.334 802.267V780H698.667V802.934ZM804.667 804C804.667 830 804 832.267 795.6 837.334C787.467 842.4 775.734 839.6 770.667 831.334C768.267 827.467 768 824.8 768 803.467V779.867L786.4 780.267L804.667 780.667V804ZM910.667 803.067C910.667 822.8 910.267 826.667 908.267 830.534C903.334 839.6 891.067 842.667 882.534 836.934C874.534 831.6 873.334 827.467 873.334 803.2C873.334 791.467 873.734 781.334 874.267 780.934C874.667 780.4 883.067 780 892.934 780H910.667V803.067V803.067Z" fill="#04BAAC"/>
<path d="M551.6 479.733C498.934 532.4 480 552.133 480 554.4C480 559.067 483.733 565.2 487.067 566C488.667 566.4 495.467 566.8 502 567.067L514 567.334L514.667 610.4L515.333 653.6L518.533 656.134C521.467 658.534 525.333 658.667 628 658.667C730.667 658.667 734.534 658.534 737.467 656.134L740.667 653.6L741.334 610.4L742 567.334L754 567.067C769.734 566.533 771.6 566 774 561.334C777.734 554.133 776.8 552.533 758.667 534L741.334 516.4V486.533C741.2 465.2 740.8 456 739.6 454.533C736.4 450.4 732.134 449.333 718.667 449.333C705.467 449.333 705.067 449.467 701.2 453.2C698 456.533 697.334 458.133 697.334 463.867C697.334 467.6 696.934 470.667 696.267 470.667C695.734 470.667 681.2 456.533 664 439.333C634.934 410.267 632.4 408 628 408C623.6 408 619.2 412.133 551.6 479.733V479.733Z" fill="#04BAAC"/>
</svg>
