<svg width="160" height="160" viewBox="0 0 160 160" fill="none" xmlns="http://www.w3.org/2000/svg">
<path d="M122.1 28.6445C124.033 29.9629 124.15 30.5781 124.15 38.1074C124.15 45.6367 124.033 46.252 122.1 47.541C121.191 48.1855 120.84 48.2148 115.801 48.2148C110.762 48.2148 110.41 48.1855 109.502 47.541C108.008 46.5449 107.451 45.1973 107.451 42.7363V40.5977H103.789H100.127V52.3164V64.0352H103.789H107.451V61.75C107.451 58.9961 108.154 57.2969 109.561 56.418C110.439 55.8906 111.025 55.832 115.771 55.832C120.605 55.832 121.074 55.8906 122.041 56.4766C123.916 57.6191 124.15 58.6152 124.15 65.9395C124.15 71.6816 124.062 72.5312 123.564 73.6152C122.568 75.8418 121.895 76.0469 115.771 76.0469C110.762 76.0469 110.41 76.0176 109.502 75.373C108.623 74.7578 107.979 73.8789 107.627 72.7363C107.48 72.2969 106.924 72.2383 101.299 72.2383C94.6484 72.2383 94.2383 72.1504 92.8027 70.627C92.0703 69.8359 92.0703 69.8359 91.9824 62.9805L91.8945 56.125H84.1309H76.3965V58.7324C76.3965 60.9297 76.3086 61.457 75.752 62.2773C74.4336 64.1816 73.6719 64.3574 67.7539 64.2695C62.7734 64.1816 62.4219 64.1523 61.5137 63.5078C60.0781 62.4531 59.6973 61.4863 59.6973 58.6152V56.125H56.0352H52.373V79.709V103.293H56.0059H59.6387L59.7559 100.51C59.8438 97.7559 59.8438 97.7266 60.957 96.6426L62.041 95.5293H68.0469H74.0527L75.1367 96.6426L76.25 97.7266L76.3379 100.656L76.4551 103.586H84.1895H91.9238V97.4043C91.9238 87.9121 91.7773 88.0586 101.035 88.0586H107.363L107.715 86.916C108.125 85.5391 109.707 84.0449 111.055 83.8105C111.582 83.6934 114.072 83.6641 116.592 83.7227C121.602 83.8105 121.982 83.957 123.389 85.832C123.975 86.5938 124.004 87.0332 124.004 93.918C124.004 100.803 123.975 101.242 123.389 102.004C121.953 103.967 121.689 104.025 115.801 104.025C110.82 104.025 110.352 103.967 109.619 103.41C107.979 102.209 107.598 101.389 107.48 98.7227L107.393 96.2617H103.76H100.127V107.98V119.699H103.789H107.451V117.414C107.451 114.66 108.154 112.961 109.561 112.082C110.439 111.555 111.025 111.496 115.771 111.496C120.605 111.496 121.074 111.555 122.041 112.141C123.916 113.283 124.15 114.279 124.15 121.604C124.15 127.727 124.121 128.137 123.506 129.367C122.393 131.477 121.66 131.711 115.684 131.711C109.766 131.711 109.004 131.447 107.979 129.162L107.422 127.902H101.211C94.2676 127.902 93.7109 127.756 92.5098 125.793C91.9824 124.914 91.9238 124.299 91.9238 118.293V111.789H84.1602H76.3965V114.338C76.3965 117.268 75.9277 118.41 74.2871 119.406C73.4082 119.934 72.793 119.992 68.0469 119.992C63.3008 119.992 62.6855 119.934 61.8066 119.406C60.166 118.381 59.6973 117.268 59.6973 114.221V111.525L53.0762 111.438L46.4844 111.35L45.3125 110.119L44.1699 108.889V96.4082V83.957H40.3906H36.6113L36.4941 86.8867L36.4062 89.8164L35.293 90.9004L34.209 92.0137H28.2031H22.1973L21.1133 90.9004L20 89.8164V79.8555V69.8945L21.1133 68.8105L22.1973 67.6973H28.2031H34.209L35.293 68.8105L36.4062 69.8945L36.4941 72.8242L36.6113 75.7539H40.3906H44.1699V63.2734C44.1699 49.6504 44.1406 49.9727 45.8691 48.6543C46.6016 48.127 47.1875 48.0684 53.1934 47.9805L59.6973 47.8926V45.2266C59.6973 43.0293 59.8145 42.3848 60.3418 41.5352C61.4258 39.7773 62.6562 39.4258 68.0469 39.4258C72.0312 39.4258 72.9102 39.5137 73.9648 40.0117C75.8984 40.8613 76.3965 41.9453 76.3965 45.1973V47.9219H84.1602H91.9238V41.7402C91.9238 34.8262 92.0996 34.0645 93.8281 32.9805C94.707 32.4531 95.2637 32.3945 101.064 32.3945H107.393L107.539 31.5156C107.803 30.3145 108.564 29.2012 109.648 28.5566C110.41 28.0586 111.172 28 115.83 28C120.84 28 121.191 28.0293 122.1 28.6445Z" fill="#04BAAC"/>
<circle cx="80" cy="80" r="78.5" stroke="#04BAAC" stroke-width="3"/>
</svg>
