<svg width="161" height="104" viewBox="0 0 161 104" fill="none" xmlns="http://www.w3.org/2000/svg">
<path d="M54.875 67.75H64.4844V76H67.6875V51.25V48.5H54.875V51.25H64.4844V65H54.875V51.25H51.6719V76H54.875V67.75Z" fill="#04BAAC"/>
<path d="M77.2969 67.75H90.1094V51.25H86.9062V65H77.2969V51.25H86.9062V48.5H74.0938V76H77.2969V67.75Z" fill="#04BAAC"/>
<path d="M106.125 73.25H102.922V51.25H106.125V48.5H96.5156V51.25H99.7188V73.25H96.5156V76H106.125V73.25Z" fill="#04BAAC"/>
<path d="M38.8594 11.1797V21.66L54.875 32.66V40.25H42.0625V48.5H26.806L18.2505 39.5048C19.1089 38.5698 19.6406 37.4065 19.6406 36.125C19.6406 33.089 16.7706 30.625 13.2344 30.625C9.69813 30.625 6.82812 33.089 6.82812 36.125C6.82812 39.161 9.69813 41.625 13.2344 41.625C14.1152 41.625 14.9577 41.471 15.72 41.1933L25.2877 51.25H42.0625V56.75H22.1807L16.4695 61.6533C15.515 61.1693 14.4195 60.875 13.2344 60.875C9.69813 60.875 6.82812 63.339 6.82812 66.375C6.82812 69.411 9.69813 71.875 13.2344 71.875C16.7706 71.875 19.6406 69.411 19.6406 66.375C19.6406 65.3575 19.2979 64.417 18.7341 63.5975L23.5068 59.5H42.0625V73.25H22.1807L16.4695 78.1533C15.515 77.6693 14.4195 77.375 13.2344 77.375C9.69813 77.375 6.82812 79.839 6.82812 82.875C6.82812 85.911 9.69813 88.375 13.2344 88.375C16.7706 88.375 19.6406 85.911 19.6406 82.875C19.6406 81.8575 19.2979 80.917 18.7341 80.0975L23.5068 76H42.0625V84.25H54.875V87C52.1171 87.6133 50.0703 89.7473 50.0703 92.3048C50.0703 95.3408 52.9403 97.8048 56.4766 97.8048C60.0128 97.8048 62.8828 95.3408 62.8828 92.3048C62.8828 89.7473 60.836 87.6133 58.0781 87V84.25H70.8906V87C68.1327 87.6133 66.0859 89.7473 66.0859 92.3048C66.0859 95.3408 68.9559 97.8048 72.4922 97.8048C76.0284 97.8048 78.8984 95.3408 78.8984 92.3048C78.8984 89.7473 76.8516 87.6133 74.0938 87V84.25H86.9062V87C84.1484 87.6133 82.1016 89.7473 82.1016 92.3048C82.1016 95.3408 84.9716 97.8048 88.5078 97.8048C92.0441 97.8048 94.9141 95.3408 94.9141 92.3048C94.9141 89.7473 92.8673 87.6133 90.1094 87V84.25H102.922V87C100.164 87.6133 98.1172 89.7473 98.1172 92.3048C98.1172 95.3408 100.987 97.8048 104.523 97.8048C108.06 97.8048 110.93 95.3408 110.93 92.3048C110.93 89.7473 108.883 87.6133 106.125 87V84.25H118.938V76H137.493L142.266 80.0975C141.702 80.917 141.359 81.8575 141.359 82.875C141.359 85.911 144.229 88.375 147.766 88.375C151.302 88.375 154.172 85.911 154.172 82.875C154.172 79.839 151.302 77.375 147.766 77.375C146.58 77.375 145.485 77.6693 144.53 78.1533L138.819 73.25H118.938V67.75H138.806L143.666 63.691C144.777 64.4968 146.196 65 147.766 65C151.302 65 154.172 62.536 154.172 59.5C154.172 56.464 151.302 54 147.766 54C144.229 54 141.359 56.464 141.359 59.5C141.359 60.1792 141.523 60.8228 141.785 61.425L137.506 65H118.938V51.25H135.712L145.277 41.1933C146.042 41.471 146.885 41.625 147.766 41.625C151.302 41.625 154.172 39.161 154.172 36.125C154.172 33.089 151.302 30.625 147.766 30.625C144.229 30.625 141.359 33.089 141.359 36.125C141.359 37.4065 141.891 38.5698 142.75 39.5048L134.194 48.5H118.938V40.25H106.125V32.66L122.141 21.66V11.1797C124.899 10.5665 126.945 8.4325 126.945 5.875C126.945 2.839 124.075 0.375 120.539 0.375C117.003 0.375 114.133 2.839 114.133 5.875C114.133 8.4325 116.18 10.5665 118.938 11.1797V20.34L102.922 31.34V40.25H90.1094V27.171L106.125 16.3992V11.1797C108.883 10.5665 110.93 8.4325 110.93 5.875C110.93 2.839 108.06 0.375 104.523 0.375C100.987 0.375 98.1172 2.839 98.1172 5.875C98.1172 8.4325 100.164 10.5665 102.922 11.1797V15.06L86.9062 25.8317V40.25H74.0938V25.829L58.0781 15.06V11.1797C60.836 10.5665 62.8828 8.4325 62.8828 5.875C62.8828 2.839 60.0128 0.375 56.4766 0.375C52.9403 0.375 50.0703 2.839 50.0703 5.875C50.0703 8.4325 52.1171 10.5665 54.875 11.1797V16.3992L70.8906 27.171V40.25H58.0781V31.34L42.0625 20.34V11.1797C44.8204 10.5665 46.8672 8.4325 46.8672 5.875C46.8672 2.839 43.9972 0.375 40.4609 0.375C36.9247 0.375 34.0547 2.839 34.0547 5.875C34.0547 8.4325 36.1015 10.5665 38.8594 11.1797ZM13.2344 38.875C11.4663 38.875 10.0312 37.643 10.0312 36.125C10.0312 34.607 11.4663 33.375 13.2344 33.375C15.0025 33.375 16.4375 34.607 16.4375 36.125C16.4375 37.643 15.0025 38.875 13.2344 38.875ZM13.2344 69.125C11.4663 69.125 10.0312 67.893 10.0312 66.375C10.0312 64.857 11.4663 63.625 13.2344 63.625C15.0025 63.625 16.4375 64.857 16.4375 66.375C16.4375 67.893 15.0025 69.125 13.2344 69.125ZM13.2344 85.625C11.4663 85.625 10.0312 84.393 10.0312 82.875C10.0312 81.357 11.4663 80.125 13.2344 80.125C15.0025 80.125 16.4375 81.357 16.4375 82.875C16.4375 84.393 15.0025 85.625 13.2344 85.625ZM147.766 80.125C149.534 80.125 150.969 81.357 150.969 82.875C150.969 84.393 149.534 85.625 147.766 85.625C145.998 85.625 144.562 84.393 144.562 82.875C144.562 81.357 145.998 80.125 147.766 80.125ZM147.766 56.75C149.534 56.75 150.969 57.982 150.969 59.5C150.969 61.018 149.534 62.25 147.766 62.25C145.998 62.25 144.562 61.018 144.562 59.5C144.562 57.982 145.998 56.75 147.766 56.75ZM147.766 33.375C149.534 33.375 150.969 34.607 150.969 36.125C150.969 37.643 149.534 38.875 147.766 38.875C145.998 38.875 144.562 37.643 144.562 36.125C144.562 34.607 145.998 33.375 147.766 33.375ZM117.336 5.875C117.336 4.357 118.771 3.125 120.539 3.125C122.307 3.125 123.742 4.357 123.742 5.875C123.742 7.393 122.307 8.625 120.539 8.625C118.771 8.625 117.336 7.393 117.336 5.875ZM101.32 5.875C101.32 4.357 102.755 3.125 104.523 3.125C106.292 3.125 107.727 4.357 107.727 5.875C107.727 7.393 106.292 8.625 104.523 8.625C102.755 8.625 101.32 7.393 101.32 5.875ZM53.2734 5.875C53.2734 4.357 54.7084 3.125 56.4766 3.125C58.2447 3.125 59.6797 4.357 59.6797 5.875C59.6797 7.393 58.2447 8.625 56.4766 8.625C54.7084 8.625 53.2734 7.393 53.2734 5.875ZM59.6797 92.3048C59.6797 93.8228 58.2447 95.0548 56.4766 95.0548C54.7084 95.0548 53.2734 93.8228 53.2734 92.3048C53.2734 90.7868 54.7084 89.5548 56.4766 89.5548C58.2447 89.5548 59.6797 90.7868 59.6797 92.3048ZM75.6953 92.3048C75.6953 93.8228 74.2603 95.0548 72.4922 95.0548C70.7241 95.0548 69.2891 93.8228 69.2891 92.3048C69.2891 90.7868 70.7241 89.5548 72.4922 89.5548C74.2603 89.5548 75.6953 90.7868 75.6953 92.3048ZM91.7109 92.3048C91.7109 93.8228 90.2759 95.0548 88.5078 95.0548C86.7397 95.0548 85.3047 93.8228 85.3047 92.3048C85.3047 90.7868 86.7397 89.5548 88.5078 89.5548C90.2759 89.5548 91.7109 90.7868 91.7109 92.3048ZM107.727 92.3048C107.727 93.8228 106.292 95.0548 104.523 95.0548C102.755 95.0548 101.32 93.8228 101.32 92.3048C101.32 90.7868 102.755 89.5548 104.523 89.5548C106.292 89.5548 107.727 90.7868 107.727 92.3048ZM115.734 43V48.5V51.25V65V67.75V73.25V76V81.5H45.2656V76V73.25V59.5V56.75V51.25V48.5V43H115.734ZM40.4609 3.125C42.2291 3.125 43.6641 4.357 43.6641 5.875C43.6641 7.393 42.2291 8.625 40.4609 8.625C38.6928 8.625 37.2578 7.393 37.2578 5.875C37.2578 4.357 38.6928 3.125 40.4609 3.125Z" fill="#04BAAC"/>
<path d="M84.805 23.75L88.8954 21H72.1046L76.195 23.75H84.805Z" fill="#04BAAC"/>
<path d="M0.421875 21V103.5H160.578V21H125.344V22.9827L124.226 23.75H157.375V100.75H3.625V23.75H36.7741L35.6562 22.9827V21H0.421875Z" fill="#04BAAC"/>
<path d="M60.6118 23.75L56.5214 21H48.1516L52.1555 23.75H60.6118Z" fill="#04BAAC"/>
<path d="M100.388 23.75H108.844L112.848 21H104.479L100.388 23.75Z" fill="#04BAAC"/>
</svg>
