<?xml version="1.0" encoding="UTF-8" standalone="no"?> <!-- Created with Vectornator for iOS (http://vectornator.io/) --><!DOCTYPE svg PUBLIC "-//W3C//DTD SVG 1.1//EN" "http://www.w3.org/Graphics/SVG/1.1/DTD/svg11.dtd">
<svg style="fill-rule:evenodd;clip-rule:evenodd;stroke-linecap:round;stroke-linejoin:round;" xmlns:vectornator="http://vectornator.io" xmlns:xlink="http://www.w3.org/1999/xlink" xmlns="http://www.w3.org/2000/svg" xml:space="preserve" version="1.1" viewBox="0 0 700 700">
<metadata>
<vectornator:setting key="DynamicGuides" value="1"/>
<vectornator:setting key="Units" value="Points"/>
<vectornator:setting key="GuidesVisible" value="1"/>
<vectornator:setting key="RulersVisible" value="1"/>
<vectornator:setting key="SnapToGuides" value="1"/>
<vectornator:setting key="GridSpacing" value="36"/>
</metadata>
<defs/>
<g id="Untitled" vectornator:layerName="Untitled">
<path d="M526.475+137.956C514.574+137.962+502.703+139.278+491.092+141.887C474.151+90.4837+434.422+49.7756+383.439+31.6019C332.456+13.427+275.941+19.8197+230.304+48.9225C184.67+78.0194+155.033+126.571+149.999+180.46C111.955+181.064+75.7114+196.76+49.2361+224.09C22.7608+251.42+8.23207+288.148+8.83775+326.193C9.44192+364.237+25.138+400.485+52.4679+426.962C79.7978+453.433+116.526+467.966+154.571+467.36L308.647+467.36C314.287+467.36+319.688+465.118+323.673+461.133C327.657+457.149+329.899+451.748+329.899+446.108L329.899+290.119L367.304+331.348C375.196+340.154+388.734+340.889+397.533+332.997C406.339+325.105+407.074+311.567+399.182+302.767L324.8+220.843C320.661+216.442+314.899+213.953+308.861+213.953C302.824+213.953+297.056+216.442+292.923+220.843L218.541+302.767C210.649+311.567+211.384+325.105+220.189+332.997C228.989+340.889+242.527+340.154+250.419+331.348L287.395+290.119L287.395+424.86L154.571+424.86C126.435+425.156+99.4543+413.705+80.1303+393.255C60.8062+372.809+50.8907+345.224+52.7761+317.153C54.6614+289.077+68.1806+263.069+90.0671+245.393C111.953+227.712+140.226+219.967+168.066+224.029C174.304+224.764+180.542+222.701+185.113+218.396C189.685+214.091+192.116+207.984+191.76+201.716L191.76+198.739L191.76+196.189C191.636+151.551+213.967+109.841+251.176+85.1919C288.385+60.5367+335.502+56.2377+376.559+73.7538C417.617+91.27+447.116+128.253+455.074+172.174C456.213+178.365+460.037+183.726+465.511+186.826C470.989+189.923+477.553+190.431+483.441+188.22C517.282+175.745+554.905+178.863+586.226+196.748C617.547+214.625+639.356+245.442+645.813+280.925C652.265+316.408+642.7+352.935+619.681+380.698C596.662+408.461+562.542+424.63+526.479+424.863L393.655+424.863C381.919+424.863+372.403+434.379+372.403+446.114L372.403+602.103L334.998+560.875C327.106+552.069+313.569+551.333+304.769+559.226C295.963+567.118+295.228+580.656+303.12+589.455L377.502+671.38C381.54+675.957+387.345+678.578+393.441+678.578C399.542+678.578+405.348+675.957+409.38+671.38L483.762+589.455C491.654+580.656+490.919+567.118+482.113+559.226C473.313+551.333+459.776+552.069+451.884+560.875L414.907+602.103L414.907+467.363L526.479+467.363C585.32+467.363+639.694+435.971+669.118+385.012C698.535+334.053+698.535+271.269+669.118+220.31C639.694+169.351+585.32+137.959+526.479+137.959L526.475+137.956Z" fill-rule="evenodd" fill="#04baac" opacity="1"/>
</g>
</svg>
