<svg width="100" height="100" viewBox="0 0 100 100" fill="none" xmlns="http://www.w3.org/2000/svg">
<path d="M66.7542 20.4C76.3271 22.9792 76.9208 26.9937 78.2625 30.9167C72.5854 36.8 36.1458 74.375 36.1458 74.375C36.1458 74.375 58.8562 76.8271 85.0771 72.2854C85.075 72.3458 85.0729 72.3854 85.0708 72.4437C89.2271 65.9604 91.6667 58.2708 91.6667 50C91.6667 26.9875 73.0125 8.33333 50 8.33333C38.2625 8.33333 27.6771 13.2042 20.1042 21.0146C32.2687 19.0083 56.0208 17.5062 66.7542 20.4Z" fill="#04BAAC"/>
<path d="M30.675 77.6771C26.5458 76.9542 21.9 73.2375 20.8687 66.6312C23.8625 64.05 62.5229 23.9083 62.5229 23.9083C47.9229 23.025 32.1708 22.9396 16.1958 25.7083C11.2667 32.5521 8.33333 40.925 8.33333 50C8.33333 73.0125 26.9875 91.6667 50 91.6667C62.8604 91.6667 74.3521 85.8333 81.9958 76.6771C73.9292 77.7708 48.4521 80.7687 30.675 77.6771Z" fill="#04BAAC"/>
</svg>
