<svg width="512" height="512" viewBox="0 0 512 512" fill="none" xmlns="http://www.w3.org/2000/svg">
<path d="M399.3 232.8C399.3 231.6 399.5 230.4 399.5 229.2C399.5 164.9 346.7 112 282.7 112C236.6 112 196.9 139.9 178.3 179C170.2 174.9 161.2 172.6 151.5 172.6C121.9 172.6 97.4 196.3 92.6 224.6C57.4 236.8 32 268.8 32 308.4C32 358.2 72.1 400 121.6 400H398C443 400 480 361.1 480 315.7C480 270.1 444.6 232.9 399.3 232.8ZM397.5 383.6L394.3 384H122.4C81.5 384 48.2 349.1 48.2 307.9C48.2 276 68.4 249.5 98.4 239.1L106.8 236.1L108.3 227.3C111.9 205.7 130.4 188 152.2 188C159.1 188 165.9 189.6 172.1 192.8L185.6 199.6L192.1 185.9C208.7 151 244.2 127.7 282.5 127.7C337.8 127.7 383.4 171.8 383.4 227.4C383.4 240.7 383.2 247.7 383.2 247.7L398.4 247.8C435.1 248.3 464 278.3 464 315.2C464 352.1 434.2 383.4 397.5 383.6Z" fill="#04C0B2"/>
<g clip-path="url(#clip0)">
<path d="M323.5 355H271V306.25H241V355H188.5V276.25C188.5 274.18 190.176 272.5 192.25 272.5C194.324 272.5 196 274.18 196 276.25V347.5H233.5V298.75H278.5V347.5H316V280C316 277.93 317.676 276.25 319.75 276.25C321.824 276.25 323.5 277.93 323.5 280V355Z" fill="#04C0B2"/>
<path d="M342.249 276.25C341.316 276.25 340.386 275.905 339.658 275.212L255.999 195.19L172.341 275.212C170.844 276.64 168.471 276.592 167.038 275.095C165.606 273.599 165.662 271.225 167.154 269.793L255.999 184.81L344.841 269.789C346.333 271.222 346.389 273.595 344.957 275.092C344.222 275.86 343.239 276.25 342.249 276.25Z" fill="#04C0B2"/>
<path d="M312.25 231.25C310.176 231.25 308.5 229.57 308.5 227.5V205H286C283.926 205 282.25 203.32 282.25 201.25C282.25 199.18 283.926 197.5 286 197.5H316V227.5C316 229.57 314.324 231.25 312.25 231.25Z" fill="#04C0B2"/>
</g>
<defs>
<clipPath id="clip0">
<rect width="180" height="180" fill="white" transform="translate(166 175)"/>
</clipPath>
</defs>
</svg>
